<svg width="91" height="25" viewBox="0 0 91 25" fill="none" xmlns="http://www.w3.org/2000/svg">
<path id="Vector" d="M79.4395 6.4992C79.5563 6.54633 79.6804 6.56918 79.8061 6.56918C80.2081 6.56918 80.5673 6.33211 80.724 5.96653L82.2272 2.45487C82.3189 2.24066 82.3307 2.00217 82.2583 1.78367C82.1711 1.51805 81.9701 1.30669 81.707 1.20102C81.5902 1.15389 81.466 1.13104 81.3404 1.13104C80.9383 1.13104 80.5791 1.3681 80.4225 1.73369L78.9192 5.24534C78.7078 5.73803 78.9428 6.3007 79.441 6.4992H79.4395ZM8.75796 8.1115C6.58953 8.1115 4.49206 8.89981 2.89419 10.295V8.16292H2.89123V1.83509C2.89123 1.08391 2.24233 0.472695 1.44562 0.472695C0.648902 0.472695 0 1.08391 0 1.83509V14.038C0 14.0923 0.00443441 14.1452 0.010347 14.198L0.0177376 16.5558C0.0177376 21.2113 3.93776 25 8.75796 25C13.5782 25 17.4982 21.2113 17.4982 16.5558C17.4982 11.9002 13.5767 8.1115 8.75796 8.1115ZM8.77274 22.0439C5.63466 22.0439 3.08931 19.5861 3.08931 16.5529C3.08931 13.5197 5.63318 11.0619 8.77274 11.0619C11.9123 11.0619 14.4562 13.5197 14.4562 16.5529C14.4562 19.5861 11.9123 22.0439 8.77274 22.0439ZM89.9978 13.7624L86.0615 13.7653C85.5102 13.7653 85.0608 14.1908 85.0623 14.7135C85.0623 15.2348 85.5117 15.6603 86.063 15.6603L89.9993 15.6575C90.2432 15.6575 90.4782 15.5732 90.6615 15.4204C90.8773 15.2405 91 14.982 91 14.7092C91 14.1866 90.5506 13.7624 89.9993 13.7624H89.9978ZM75.7175 5.76517C76.2571 5.76517 76.6946 5.33103 76.6931 4.79693L76.6902 0.966811C76.6902 0.434137 76.2511 0 75.7131 0C75.1736 0 74.7361 0.434137 74.7375 0.96824L74.7405 4.79835C74.7405 5.33103 75.1795 5.76517 75.7175 5.76517ZM75.6776 7.7602C73.5062 7.7602 71.459 8.68417 70.0637 10.2936C69.9824 10.3864 69.9173 10.4878 69.8656 10.5935C68.5294 8.8741 66.4008 7.7602 64.0092 7.7602C59.9724 7.7602 56.6895 10.9334 56.6895 14.8321V23.282C56.6895 24.0518 57.3384 24.6787 58.1351 24.6787C58.9318 24.6787 59.5807 24.0518 59.5807 23.282V14.8321C59.5807 12.4729 61.5673 10.5535 64.0092 10.5535C66.4511 10.5535 68.4392 12.4729 68.4392 14.8321V23.2834C68.4392 24.0532 69.0881 24.6801 69.8848 24.6801C70.6815 24.6801 71.3304 24.0532 71.3304 23.2834V15.5332C71.3304 13.3683 72.1079 12.2858 72.405 11.9502C73.2446 11.0591 74.4271 10.5521 75.6791 10.5521C78.121 10.5521 80.1091 12.4714 80.1091 14.8306V23.282C80.1091 24.0518 80.758 24.6787 81.5547 24.6787C82.3514 24.6787 83.0003 24.0518 83.0003 23.282V14.8306C83.0003 10.9305 79.7159 7.75877 75.6806 7.75877L75.6776 7.7602ZM86.6631 4.47418C86.4828 4.29995 86.2404 4.20285 85.9817 4.20285C85.723 4.20285 85.4555 4.30852 85.2648 4.49275L82.4623 7.20467C82.0721 7.58311 82.0647 8.18862 82.4445 8.55564C82.6249 8.72986 82.8673 8.82697 83.126 8.82697C83.3846 8.82697 83.6522 8.7213 83.8428 8.53707L86.6454 5.82515C87.0356 5.44813 87.043 4.8412 86.6631 4.47561V4.47418ZM46.477 7.77876C44.0751 7.77876 41.7529 8.74986 40.1078 10.4421C38.4389 12.1587 37.6053 14.4036 37.759 16.7628C38.0325 20.9457 41.4987 24.3302 45.8222 24.6358C46.0336 24.6501 46.2479 24.6587 46.4608 24.6587C47.7556 24.6587 49.0593 24.3731 50.233 23.8318C51.4037 23.292 52.4532 22.4937 53.2676 21.524C53.3119 21.4712 53.3519 21.4141 53.3844 21.3541C53.7391 20.7715 53.6164 20.0174 53.0725 19.5704C52.8094 19.3548 52.4738 19.2363 52.1294 19.2363C51.7008 19.2363 51.2958 19.4176 51.0179 19.7332C51.012 19.7404 51.0046 19.7475 50.9987 19.7561C50.9972 19.7589 50.9957 19.7604 50.9928 19.7632C50.4503 20.4059 49.7496 20.9357 48.9662 21.2941C48.1843 21.6526 47.3151 21.8425 46.4534 21.8425C46.3144 21.8425 46.1725 21.8368 46.0336 21.8282C43.5252 21.6511 41.4499 19.916 40.838 17.6282H53.4538C53.9298 17.6282 54.391 17.4383 54.7191 17.107C55.0517 16.7728 55.2232 16.3344 55.204 15.8731C55.0133 11.3347 51.179 7.78019 46.4756 7.78019L46.477 7.77876ZM40.838 14.8106C41.0774 13.9067 41.5504 13.0712 42.2333 12.37C43.3464 11.2247 44.8526 10.5949 46.477 10.5949C47.9862 10.5949 49.4141 11.1448 50.4976 12.1416C51.2943 12.8742 51.8486 13.7967 52.1161 14.8106H40.838ZM27.6293 7.77876C25.2274 7.77876 22.9052 8.74986 21.26 10.4421C19.5912 12.1587 18.7576 14.4036 18.9113 16.7628C19.1833 20.9457 22.651 24.3302 26.9745 24.6358C27.1859 24.6501 27.4002 24.6587 27.6116 24.6587C28.9064 24.6587 30.2102 24.3731 31.3838 23.8318C32.5545 23.292 33.604 22.4937 34.4184 21.524C34.4628 21.4712 34.5027 21.4141 34.5352 21.3541C34.8899 20.7715 34.7687 20.0174 34.2233 19.5704C33.9602 19.3548 33.6246 19.2363 33.2802 19.2363C32.8516 19.2363 32.4466 19.4176 32.1687 19.7332C32.1687 19.7332 32.1687 19.7332 32.1672 19.7347C32.1613 19.7418 32.1554 19.7489 32.1495 19.7561C32.148 19.7575 32.1465 19.7604 32.145 19.7618C31.6026 20.4044 30.9019 20.9343 30.12 21.2927C29.3366 21.6511 28.4689 21.8411 27.6072 21.8411C27.4667 21.8411 27.3263 21.8354 27.1874 21.8268C24.679 21.6497 22.6037 19.9146 21.9917 17.6268H34.6061C35.0821 17.6268 35.5433 17.4369 35.8729 17.1056C36.2055 16.7728 36.3769 16.333 36.3577 15.8717C36.167 11.3333 32.3328 7.77876 27.6293 7.77876ZM21.9902 14.8106C22.2297 13.9067 22.7027 13.0727 23.3856 12.37C24.4986 11.2247 26.0049 10.5949 27.6293 10.5949C29.1385 10.5949 30.5664 11.1448 31.6499 12.1416C32.4466 12.8742 33.0009 13.7967 33.2684 14.8106H21.9902ZM85.6743 11.8859L89.3149 10.4264C89.5307 10.3407 89.7096 10.1851 89.819 9.99086C89.9609 9.74095 89.9786 9.44819 89.8663 9.18828C89.717 8.83983 89.3622 8.61562 88.9646 8.61562C88.8286 8.61562 88.6956 8.64132 88.5699 8.69131L84.9293 10.1508C84.4193 10.355 84.1725 10.9105 84.3779 11.389C84.5272 11.7374 84.882 11.9616 85.2796 11.9616C85.4156 11.9616 85.5486 11.9359 85.6743 11.8859Z" fill="white"/>
</svg>
