<svg viewBox="0 0 222 32.2" fill="none" xmlns="http://www.w3.org/2000/svg">
    <path fill="#161616" d="M.25.4h221v32.2H.25z"/>
    <path d="M107.5 11.51c.07-.05.08-.11.02-.2l-.27.16.08-.21c-.08.03-.14.04-.17.08a.53.53 0 0 1-.27.2c-.15.05-.23.14-.25.3l-.19-.04a.32.32 0 0 1-.22.27l-.24.12c-.06.04-.09.13-.14.21l.08.04c-.15.16-.03.31.05.44.06.11.08.21.06.33.18.18.21.42.25.65 0 .05 0 .1.02.15l.13.75.01.04c-.08.18 0 .37-.02.55l-.05.25c0 .02 0 .04.02.07l.02.1c-.02.1-.06.21-.07.32 0 .04.04.08.07.13l-.12.06c.03.04.07.06.07.1l-.01.29c-.02.17-.02.34-.07.5-.06.16-.01.34-.13.5-.06.08-.03.22-.07.34-.1.34-.23.68-.33 1.03-.08.27-.21.5-.37.74-.06.09-.08.2-.12.3-.04.1-.1.2-.2.21-.02.07-.02.14-.06.18l-.61.75c-.03.03 0 .1-.03.14-.13.14-.23.3-.45.33l.04.18-.23-.04c-.06.1.07.2-.03.27-.05.03-.13.02-.22.02-.16.16-.27.4-.53.56l.03-.17c-.15.05-.16.2-.25.27l-.3.24h-.16c-.06 0-.12.02-.13.1l-.03.04c-.24.04-.37.26-.59.34-.02.01-.05.04-.05.06-.03.09-.09.1-.16.08h-.08c-.1.19-.33.18-.46.32-.02.03-.1.03-.15.03l-.46.01c-.06.01-.17.03-.16.16 0 .02-.08.05-.13.07l.04.07-.19.04-.05-.13c-.27-.04-.44.18-.67.29l.01-.11v-.1l-.1.12c-.1-.12-.22-.09-.37-.07l.3.17-.06.05c-.12-.12-.25-.09-.4-.01l-.03-.24-.23-.01h.01l-.33.06c0-.12-.06-.2-.2-.23l.1.14c-.06.02-.1.05-.16.06-.1.02-.15-.08-.22-.1-.08-.02-.16 0-.19-.1-.13.05-.25.08-.35-.04l-.06-.02c-.2.02-.4-.1-.57-.05-.06-.05-.1-.1-.16-.12-.1-.05-.2-.15-.35-.13-.04 0-.1-.11-.17-.18l-.07.04-.12-.26-.08.17c-.15 0-.07-.15-.15-.2h-.14l-.04-.24c-.15 0-.22-.18-.35-.12l-.2-.23.07-.07-.5-.33-.04.09-.1-.06.11-.14c0-.06-.2-.14-.34-.13.02-.09.08-.18-.06-.23-.02 0-.01-.1-.02-.16h-.17v.13l-.18-.13c-.02.02-.05.06-.07.06-.14-.01-.18.13-.3.16a.67.67 0 0 0-.32.21c-.16.2-.39.3-.59.44-.1.08-.11.07-.25.03-.03.1 0 .25-.18.23-.1.14-.27.15-.4.24-.13.1-.26.19-.37.3-.19.2-.42.33-.66.45-.1.05-.21.1-.32.13-.2.05-.32-.01-.44-.22-.09-.16-.17-.3-.35-.37-.08-.02-.04-.08 0-.12l-.2-.15c.03-.4.16-.76.51-1 .18-.14.32-.35.54-.44.06-.03.1-.12.15-.18.35-.38.76-.68 1.16-1 .2-.15.37-.33.54-.49 0-.15-.17-.22-.12-.36 0-.01 0-.03-.02-.04-.16-.08-.2-.25-.3-.39-.05-.1-.05-.17 0-.28l-.11.02c-.02-.1.06-.16.23-.17-.05-.06-.08-.11-.18-.1-.16.02-.28-.1-.28-.26 0-.03.02-.09 0-.1-.13-.11-.09-.29-.13-.43-.05-.14-.04-.3-.06-.45l-.01-.07c-.11-.02-.08-.13-.08-.18.03-.15 0-.31.03-.47v-.04c-.06-.14-.04-.3-.03-.45 0-.07 0-.15.02-.22.02-.06.08-.12 0-.18l.02-.1c.03-.14.07-.27.09-.42 0-.07-.02-.15-.01-.24.01-.12.08-.15.15-.17.07-.03.13-.03.14-.14l-.12.08c-.12-.02-.08-.1-.06-.17.05-.16.05-.33.04-.5v-.06c.15-.05.1-.17.12-.27l.08-.3c.08-.2.15-.42.22-.64.08-.23.18-.48.32-.7.08-.12.13-.26.25-.35.02-.01.01-.05.03-.08.06-.13.13-.25.18-.39.07-.2.2-.35.34-.5.1-.12.16-.3.34-.34.03 0 .05-.03.07-.05.14-.22.36-.34.58-.45.17-.1.3-.24.46-.33.2-.1.36-.3.61-.3l.04-.01c.13-.26.37-.12.58-.2 0-.08.08-.14.19-.16l.72-.14.15-.01c.07-.03.14.08.2-.02.08-.1.16.04.22 0 .18-.09.36.02.54.02.32-.01.63.06.94.16.15.05.31.07.46.12.08.02.16.08.22.13.1.08.18.17.26.26l.02.04c-.07.14.05.2.12.26.08.07.1.15.07.25-.05.21-.16.3-.39.3a.91.91 0 0 0-.5.1c-.1.06-.21 0-.32 0v-.09l-.1.05.01.03.1.01c-.06.13-.16.12-.26.09-.04-.07-.08-.13-.18-.13.03.06.1.1.18.12-.13.03-.27.05-.4.06-.15.02-.3 0-.44 0l-.14.24-.22-.06c-.08.12-.2.16-.35.2a1 1 0 0 0-.21.1c-.29.14-.58.26-.8.5l-.27.25c-.07.06-.2.06-.18.2 0 .03-.07.07-.11.1l-.19.1v.13l-.3.32.13.09-.21.13c0 .05.02.12 0 .15-.16.18-.2.42-.32.62-.12.21-.14.47-.3.66a.24.24 0 0 0-.05.09l-.09.3c-.06.2-.12.4-.2.58a.86.86 0 0 0-.08.49c.01.05-.01.11-.03.17-.04.11-.12.22-.02.35.03.05-.02.15-.02.23.01.3.07.62.03.92-.03.2.1.32.1.5 0 .15.05.3.06.45.02.15.16.24.28.15.15-.1.33-.2.44-.36a.86.86 0 0 1 .18-.16c.17-.13.37-.23.52-.39.1-.1.26-.14.34-.26.02-.03.07-.03.1-.04l.32-.13-.08-.11c.17-.07.3-.25.54-.12l-.05-.14c.1-.1.18-.22.29-.32.03-.03.11-.02.18-.04l.02-.14c.07-.03.15-.02.22-.1.13-.16.3-.3.48-.42.17-.12.36-.24.52-.4.2-.21.47-.34.7-.5l.32-.24.82-.7c.16-.12.34-.21.5-.33.1-.06.18-.14.27-.2l.66-.49c.07-.04.13-.1.18-.15.05-.06.09-.1.17-.09l.08-.04c.17-.13.33-.3.52-.4.24-.14.43-.37.7-.47.11-.05.21-.13.32-.2l.05-.06c.04-.04.06-.12.11-.14.2-.08.33-.24.5-.36l.03-.03.28-.14.24-.18.16-.13.8-.62c.08-.05.18-.05.25-.1.15-.11.3-.23.42-.36.17-.18.36-.32.58-.42.24-.11.43-.28.63-.46a.53.53 0 0 1 .22-.12c.35-.01.7-.11 1.06-.02.14.04.28.03.43.04.11.01.2.08.27.16.24.22.32.51.45.8.11.27.18.55.27.83.08.25.19.49.23.75l.02.27c.09.1.1.2.03.29.04.03.1.06.12.1.08.29.17.57.3.83.07.17.11.35.13.54 0 .12.1.2.1.33.01.11.06.22.1.33.05.13.13.23.1.39-.01.1.06.2.11.31.06.14.12.28.1.44 0 .03.03.08.04.11.04.1.1.2.1.31 0 .16.09.28.13.42.02.07.07.15.07.22.01.16.13.28.1.45.12.03.16.1.08.2-.01.01.07.07.08.12.09.35.31.66.31 1.04 0 .13.1.27.12.4.03.2.16.36.12.56.13.1.05.28.13.41.06.12.06.28.1.42v.08c.22.01.17-.24.33-.28l-.07-.08c.05-.08.1-.18.27-.13-.05-.07-.1-.1-.1-.13.02-.06.05-.15.1-.16.19-.07.16-.24.2-.37l.25-.07-.18-.1.2-.13c-.05-.1.15-.14.12-.3-.01-.08.08-.18.14-.29l.2-.08-.17-.03c.05-.05.08-.1.13-.13.13-.1.12-.27.21-.4.06-.09.16-.16.12-.3-.01-.05.12-.09.27-.06 0-.04.04-.1.03-.14-.03-.1-.03-.16.08-.2l.03-.03c-.08-.1.04-.15.05-.26l.07.12c.02-.04.05-.07.04-.09-.03-.08-.05-.16.06-.2.01 0 .03-.02.02-.03-.07-.16.09-.12.15-.17a4.75 4.75 0 0 0-.1-.06c.04-.13.15-.13.27-.11a.41.41 0 0 1 .03-.32c.15-.3.3-.6.5-.88.1-.14.16-.32.24-.48.08-.17.19-.33.24-.51.1-.3.34-.55.4-.87 0-.05.03-.1.06-.14.14-.18.25-.39.36-.6.1-.2.19-.45.42-.56.08-.05-.02-.18.1-.18.07-.2.12-.4.3-.51-.04-.17.22-.17.2-.33 0-.03.04-.07.07-.08.13-.05.16-.15.16-.28.06-.02.1-.05.18-.07-.02-.14.01-.24.18-.2 0-.07 0-.13.03-.19.01-.02.08-.01.14-.02 0-.1.1-.13.2-.17.25-.08.5-.15.78-.08v.18l.16.1-.05.16c.12.06.17.15.17.3-.02.17-.02.34.12.5.1.13.01.31-.02.47-.03.1-.05.23-.12.32-.11.13-.12.3-.2.45l-.19.45-.16.3c-.03.05-.07.1-.08.15-.1.33-.24.62-.43.9a.55.55 0 0 0-.08.16.78.78 0 0 1-.24.43.2.2 0 0 0-.05.07c-.16.42-.4.8-.63 1.2l-.13.28-.13.17c-.02.03-.05.07-.05.1-.01.07 0 .14-.1.14-.02 0-.04.04-.05.06-.03.2-.14.37-.24.54-.12.2-.21.42-.32.62-.1.17-.17.36-.3.5-.1.11-.08.3-.25.37-.04.02-.02.13-.06.2-.13.22-.28.43-.37.68-.17.07-.2.26-.28.39-.1.13-.13.3-.26.41.03.1-.18.04-.12.19.02.05-.09.1-.06.2 0 .03-.05.08-.09.12-.06.07-.15.12-.14.23-.15.08-.1.27-.24.38-.18.15-.15.18-.28.2.11.1 0 .2.02.28 0 .02-.04.05-.06.08-.03.03-.08.07-.08.09.06.15-.08.15-.16.2l.02.13-.21.17a4 4 0 0 0 .01.12c-.04.02-.1.03-.11.06-.05.08-.08.17-.12.25-.03.05-.04.12-.08.15a.25.25 0 0 0-.1.16c-.01.04-.08.07-.14.12.03.11-.02.23-.15.3-.06.02-.05.05-.06.1a.53.53 0 0 1-.1.26c-.1.12-.08.3-.21.41a.76.76 0 0 1-.25.17c-.07.03-.15.05-.22.09-.1.06-.2.04-.3.02-.08-.03-.17-.07-.24-.05-.15.02-.21-.02-.21-.15-.07 0-.14.02-.18 0a.72.72 0 0 1-.22-.23c-.05-.1-.07-.23-.1-.35-.07-.19-.18-.36-.21-.55-.05-.27-.2-.5-.26-.78-.05-.23-.16-.45-.23-.69-.04-.13-.04-.27-.07-.4 0-.04-.03-.07-.05-.1l.07-.04.2.03a.2.2 0 0 1 0-.03h-.2l-.25-.5.12-.1-.2-.18c0-.09.02-.17.03-.25l.18-.05c-.14-.05-.26-.06-.31-.12-.05-.06-.03-.18-.04-.27-.05-.1-.12-.2-.15-.32-.05-.23-.2-.44-.13-.7l-.15-.21h.25V18c-.02-.01-.04-.03-.07-.03-.13-.03-.29-.16-.27-.28.03-.16-.08-.24-.13-.35-.02-.03-.05-.05-.05-.07.02-.2-.1-.39-.14-.58-.02-.1-.12-.2-.11-.32v-.14c0-.02.02-.04.01-.05l-.17-.34c-.03-.07-.06-.15-.04-.21.04-.13-.08-.23-.03-.35.01-.04-.03-.11-.06-.16-.11-.16-.13-.35-.18-.52a1.77 1.77 0 0 1-.09-.68l-.03-.02c-.1-.07-.07-.12.03-.16l.04-.02c.02-.08.07-.19.04-.2-.07-.07-.04-.2-.16-.21-.1-.01-.16-.05-.22-.16l.19.05c.12-.04.13-.15.12-.3l.18.14-.1.12.15.03.05-.23-.18-.38c-.1-.01-.08.16-.23.2l-.13-.17-.05.13c-.11 0-.1-.08-.12-.14.02-.06.14 0 .1-.1.08 0 .1-.03.11-.11h-.13l.03.1c-.04-.02-.1-.03-.12-.06-.02-.06-.01-.13-.02-.2h.05c.03.05.08.05.13 0h-.14l.1-.18-.21.03c-.1-.1.07-.11.07-.19h-.15l-.04-.17c.08.09.16.09.22.01-.1.05-.14-.07-.22 0v-.1l.02-.11c.05.06.11.05.18-.04l-.16.02.02.01Zm-16.33 4.53h-.16v.03l.16-.03.17-.01v-.04l-.17.05ZM108.02 12c.01.08.05.13.13.13l-.13-.13-.05-.2c-.1.18-.1.19.05.2Zm-12.28 7.87c.03-.06.11-.11 0-.21v.2l.03.01v.02c-.03.03-.06.08-.1.09-.27.02-.4.23-.56.38l-.2.13-.2.1.11.38c.1.03.24.04.3.11.06.11.2.05.26.15.04.04.11.07.17.09.18.06.37.1.52.23.05.05.1.12.17.03h.06c.1.17.29.06.41.16.1.07.23.08.35.1.12.03.28 0 .36.08.11.1.23.05.34.07.23.04.46.06.68-.05a8.14 8.14 0 0 1 .61-.21c.15-.04.26-.11.38-.2.19-.15.43-.23.64-.34a.4.4 0 0 0 .09-.06c.15-.14.37-.22.5-.4.02-.03.09-.03.13-.06.08-.05.2-.1.22-.18.02-.07.05-.1.1-.12.08-.05.15-.16.28-.1l.08-.08c.1-.09.1-.3.34-.24-.01-.15.02-.25.16-.28.03 0 .06-.05.06-.07 0-.1.06-.13.13-.17l.26-.16a5.94 5.94 0 0 1-.1-.07c.09-.05.2-.07.19-.21 0-.03.05-.05.07-.08l.09-.11.19-.25-.03-.03.28-.47c-.04-.06-.02-.13.05-.22.1-.16.21-.32.25-.52.03-.15 0-.32.1-.46.05-.05.1-.1.13-.17.03-.08 0-.23.05-.25.13-.06.06-.16.1-.24a.16.16 0 0 1 .05-.07c.08-.04.06-.12.05-.19-.01-.12-.08-.26-.04-.35.07-.13.02-.23 0-.34v-.06c.12-.14.08-.3.06-.45a.85.85 0 0 1 .03-.45c.03-.06-.03-.26-.09-.26-.07-.01-.13-.06-.23 0-.12.08-.18.23-.32.27a.4.4 0 0 0-.28.23l-.35.04v.04l.17.05c-.09.05-.17.06-.18.1-.1.22-.33.26-.5.39l-.3.3-.14-.03c0 .08 0 .15-.11.17-.12.02-.22.12-.32.2-.22.2-.4.46-.75.48-.02 0-.04.02-.05.03a11.55 11.55 0 0 0-.27.23c.05.1-.05.1-.1.15-.08.1-.18.03-.29.03l.06.15-.29.07.04.19c-.1.05-.22.1-.19.26l-.3-.05c.08.11 0 .14-.07.19-.1.08-.19.19-.28.28-.25.17-.6.2-.74.5-.08.03-.2.04-.22.09-.08.13-.26.13-.34.26-.03.06-.11.15-.16.15-.14-.01-.2.08-.28.15l-.12.04-.03.03.03.14a1.2 1.2 0 0 0-.65.34c-.01.02-.06 0-.1 0h-.05l-.06.19-.22-.01c0 .09-.01.18-.12.2Zm-4.6-4.56-.1.15.22.02v-.02l-.07-.04.06-.22H91v.03l.12.08Zm16.8-3.83-.17-.25c-.11.1 0 .16.02.23l.15.02ZM91.2 15.7c-.08-.16-.11-.17-.26-.05l.26.05Zm-.46.02.1-.16c-.08 0-.13 0-.22.02l.12.14Zm.2.06c.08.09.15.08.2-.02l-.2.02Zm17.7-1.93-.18-.11c0 .1.06.13.18.1Zm-17.55 1.13c.08 0 .15-.02.18-.1l-.03-.05-.15.1v.05Zm4.73 8.64-.02.05.17.07c0-.02 0-.03.02-.04l-.17-.08Zm-4.36-8.86.04.03.07-.13-.04-.06-.07.16Zm12.75-.7c-.05-.1-.09-.15-.19-.08l.19.08Zm-12.85.36c-.09-.07-.16-.1-.22-.07l.22.07Zm1.33-3.1c0-.02 0-.04-.02-.06l-.13.05.02.06.14-.05Zm15.83 2.03c-.09.02-.14.06-.17.13l.17-.13Zm1.14 4.13-.17-.14c.04.12.04.2.17.14Zm-7.95 2.87.03-.02-.07-.1-.03.03.07.1Zm-5.93-2.98.03-.03-.07-.08-.04.03.08.08Zm12.4-4.86.03-.06-.14-.04-.02.04.13.06Zm1.06 5.22.04.07.1-.08-.02-.03c-.04 0-.08.02-.12.04Zm-4.72-4.01-.03-.02-.07.08.05.03.05-.1Zm5.33 5.08v.05l.12.02v-.04l-.12-.03Zm-18.45.6c-.02 0-.03.02-.05.03l.07.08.03-.02-.05-.1Zm-.77-2.95.03.03.08-.08-.02-.03-.09.08Zm19.85 5.23c-.02.03-.04.05-.03.06 0 .02.02.04.03.05l.04-.03c0-.03-.02-.05-.04-.08ZM95.02 20.3l-.04-.02-.03.1.03.01.04-.1Zm-3.75-5.76-.06-.03-.04.04c.02 0 .03.03.05.03l.05-.04Zm11.02 5.64-.05-.04-.03.04.03.03.05-.03Zm7.99-.15.04-.05c0-.02-.03-.03-.04-.05l-.04.06.04.04Zm-.53-.61.03-.01-.03-.07-.02.01.02.07Zm-.96-4.24.04-.04c0-.01-.03-.04-.04-.03-.02 0-.04.03-.05.04l.05.03Zm-.17.23.05-.05-.1-.04-.03.04.08.05Zm-4.49.12-.02-.01-.06.11.03.01.05-.11ZM90.94 18.1v-.05l-.09.02v.04l.1-.01Zm18.73-.32c-.02-.02-.03-.04-.05-.04l-.04.04.05.05.04-.05Zm-9.83 6.3v-.06L99.8 24l.04.08Zm13.93-6.91v-.04l-.1.03v.04l.1-.03Zm-17.95-.1-.05.04.03.03c.02 0 .04-.02.04-.03 0-.01 0-.03-.02-.05Zm-60.5 3.73.2.2c.08-.09.16-.18.27-.02.24.04.42.2.63.32.25.14.29.14.54 0 .04-.04.1-.04.19-.06-.06-.04-.1-.06-.12-.1a.27.27 0 0 1-.06-.12c.02-.09.17-.07.13-.2-.01-.04.06-.11.1-.16.08-.06.13-.13.12-.24 0-.05.05-.1.08-.16.03.14.11.1.2.03l-.2-.02.23-.31-.11-.12.27-.35.04-.07c-.06-.13.04-.15.11-.18-.01-.15.04-.23.15-.26l-.01-.1c0-.04-.02-.06-.04-.1l.23-.13-.08-.12c.01-.1.21-.11.1-.26.06-.07.22-.07.15-.22l.16-.05.15.02.01-.05-.2-.06c.16-.3.21-.63.52-.82l-.03-.13.23.04.02-.03-.14-.12c.04-.16.22-.1.31-.2l-.15-.27.19-.25c.01-.02.06-.01.09-.03a.14.14 0 0 0 .06-.07c.03-.13.14-.36.2-.46.03-.06.12-.12.07-.21 0-.02 0-.05.02-.06.18-.14.18-.37.28-.56.06-.1.17-.15.17-.28.18-.13.19-.35.28-.53.05 0 .1 0 .19-.02l-.15-.1.2-.2c.01-.02.04-.04.03-.05-.08-.18.1-.28.15-.41.09-.21.21-.42.37-.58.13-.12.1-.3.22-.4l.22-.27c.02-.02.06-.04.06-.06-.01-.14.1-.2.16-.3.18-.26.34-.52.53-.76.23-.3.44-.6.7-.85.05-.04.07-.09.1-.15.04-.1.14-.17.22-.25.06-.08.16-.14.2-.22.04-.11.19-.14.19-.28l.07-.05.5-.2c.14-.05.3.02.37.15.02.03.06.05.09.07.04.04.11.06.12.1.04.2.25.3.3.5l.2.49c.01 0 0 .03.02.03.05.04.1.08.17.11-.06.06-.03.12.01.17l.1.2.1.16c.1.26.15.32.3.44l-.1.1.1.03v.12c.1.06.05.26.22.26l.12.29c.03.08.03.2.09.25.08.08.03.13-.01.2a.5.5 0 0 1 .18.08c.04.02.08.06.09.1.02.23.17.4.28.6.09.16.13.36.25.51l.09.15c.05.06.12.12.12.22 0 .03.03.06.05.1.04.07.19.06.17.21-.01.07.07.16.11.25l.08.1c.09.06.13.14.17.24.03.08 0 .2.15.22.02 0 .04.08.06.13.04.16.04.16.17.24l-.08.16c.08.03.17-.11.21 0 .02.06-.03.14-.05.22l.14.02c.05.13.02.3.22.35l-.04.23c.12 0 .18.08.22.18.12.23.26.44.37.67.04.1.06.2.18.24l-.06.17.2.04c-.05.07-.1.11-.13.17l.03.02c.14.06.24.16.26.31 0 .04.03.07.05.1l.08.11.2.4a2.3 2.3 0 0 1-.06.09c.02.02.03.05.05.05.12 0 .14.07.14.17 0 .05 0 .08.07.12.13.07.03.16-.06.24l.17.02.02.1c0 .07.12.09.08.2-.04.09.1.1.11.17l.17.47c.04.11.03.23.15.32.07.06.14.2.08.34.15.12.2.25.14.36.19.12.27.32.36.51.04.1.05.21.06.32l-.06.03.15.17c.1.1.09.15-.07.2.04.04.07.08.12.1.09.05.15.12.14.23 0 .02.01.06.03.08.15.16.16.27.05.47-.1.17-.26.27-.42.36-.09.05-.2.06-.3.1-.14.03-.23-.04-.3-.15l-.25-.52-.13.04-.01-.09-.23-.25a.18.18 0 0 0-.07-.04c-.34-.09-.4-.39-.5-.66l-.13-.23-.08-.12-.28-.68c-.07-.16-.17-.3-.25-.45-.14-.26-.3-.5-.42-.78-.11-.27-.3-.5-.44-.75l-.21-.35-.34-.54-.5-.83a3.02 3.02 0 0 0-.26-.35c-.03-.04-.1-.04-.16-.07l.15-.11-.2.02a2.11 2.11 0 0 0-.04-.1l-.06.03-.08.2-.07-.22c-.16.22-.33.11-.5.03-.11.18-.1.44-.39.46l-.02-.13c.1.06.15 0 .17-.13-.07.05-.18-.05-.17.1-.04 0-.09-.02-.12 0l-.33.17v.1c-.14.11-.23 0-.35-.07-.07.2-.26.13-.4.19l.15.04-.01.05c-.12-.01-.21.13-.37.07l.14-.07c-.15-.07-.21.05-.3.14-.13-.07-.27-.1-.38.04-.09.01-.14-.16-.24-.04-.01.01 0 .05.03.1l-.68.22c-.03.01-.08-.01-.11-.02l-.04-.02c-.1.13-.25.07-.38.1-.08.03-.14.09-.2 0-.14.04-.28.08-.4.14-.1.05-.16.1-.28.04-.04-.03-.13-.01-.17.02-.09.05-.2.11-.22.2-.06.14-.15.26-.2.4-.04.09-.17.15-.16.22 0 .11-.03.2-.1.25-.1.08-.13.2-.17.3-.01.04-.02.09-.05.12-.17.19-.24.45-.42.62-.06.05-.08.14-.1.2-.02.03-.01.06-.03.07-.2.2-.33.47-.45.73-.06.13-.14.24-.31.22l-.06.04.12.03a.6.6 0 0 1-.25.3c-.14.08-.14.09-.05.25-.1.11-.24.18-.26.36 0 .04-.09.06-.15.1l.01.13-.12.04a.9.9 0 0 1-.18.53c-.05.06-.17.03-.18.14l-.02.06.09.07-.02.04h-.22l-.01.1-.3.22c-.07-.13-.13-.26-.04-.4-.15-.15-.26-.18-.36-.1-.1-.11-.23-.1-.37-.02v.14c-.04-.03-.09-.05-.1-.07-.01-.13-.1-.22-.18-.31l-.07.16h-.04c-.01-.03-.04-.08-.03-.1.03-.04.1-.07.05-.12-.03-.02-.1-.01-.15-.01.04-.25-.2-.08-.3-.18l.17-.1-.01-.04-.3.02-.01-.14c-.05 0-.09.02-.14.03l-.16-.02.07-.2-.18-.11c-.07.14-.2.07-.29.06-.08 0-.16-.12-.26-.2l.16-.07c-.16-.1-.29.07-.43-.01l.1-.12-.24-.08c-.03-.05-.04-.13-.1-.17-.04-.03-.13-.03-.2-.04h-.01v.03l-.11.02c-.02-.08-.03-.16-.06-.22-.04-.06-.1-.1-.16-.15-.04.03-.07.1-.1.1-.05 0-.09-.07-.13-.1-.08-.04-.12-.2-.26-.1-.02-.18-.2-.21-.31-.32-.12-.12-.3.03-.49 0l.18-.1-.16-.05.19-.09-.12-.03c-.23.05-.25.06-.37-.09-.07-.09-.16-.11-.25-.16l.05-.11c-.2 0-.36-.14-.53-.2-.23-.09-.43-.36-.75-.13.04-.19-.17-.24-.12-.41h-.24c-.04-.01-.11.02-.12-.06 0-.02-.07-.05-.08-.04-.1.09-.17-.01-.28-.05l.1-.2-.35.04-.09-.2-.16.07v-.07l.1-.11c-.13-.1-.16.06-.27.06l-.1-.26-.15.09c.04-.11 0-.16-.08-.2a1.2 1.2 0 0 1-.38-.4c-.06-.08-.1-.17-.22-.16-.02 0-.05-.03-.06-.05 0-.07-.04-.07-.1-.08-.18-.03-.32-.11-.37-.32l-.73-.2c-.03-.01-.08.02-.12.03-.06.04-.13.09-.2.11-.16.05-.16.04-.2.18a.35.35 0 0 0-.27.18c-.08.13-.21.25-.4.16v.13l-.27-.04c-.03.1-.06.17-.07.25l-.02.25v.53c0 .02-.07.04-.13.07.13.07.15.18.14.29 0 .06-.05.11-.08.17.02.03.07.06.07.1.02.31.04.62.04.93 0 .07-.07.13-.12.21.05.06.16.1.05.23-.03.03 0 .13 0 .2l-.09.05.13.3-.11.02c.02.1.06.18.07.27 0 .11.02.23-.07.33-.02.02-.02.1 0 .13.12.23.08.43-.13.55-.05.03-.05.06-.07.11-.04.18-.15.2-.3.07l-.12.23c-.1-.04-.24-.04-.23-.23 0-.05-.1-.1-.14-.16-.1-.1-.08-.22-.02-.33l-.16-.21c-.05-.01-.16 0-.2-.04a.7.7 0 0 1-.15-.32 9.66 9.66 0 0 1-.05-.93c0-.1-.08-.15-.06-.23v-.25c0-.13-.03-.26-.05-.38 0-.04.01-.08.03-.1.05-.08.02-.14-.02-.22-.04-.09-.02-.2-.03-.31 0-.08-.02-.15-.03-.23 0-.02-.01-.05 0-.07.07-.17.03-.33 0-.51-.05-.17 0-.35 0-.53 0-.03.02-.06 0-.08-.1-.15-.04-.3-.03-.46v-.37c0-.1-.03-.21 0-.3.07-.16.05-.28-.08-.4l.1-.15c-.11-.14-.07-.27.05-.39l-.08-.1.1-.07a4.98 4.98 0 0 1-.14-.07c.16-.1.12-.25.09-.41l-.1.06c-.02-.05-.07-.11.02-.13.09-.03.08-.09.08-.13 0-.04-.05-.08-.09-.12l.05-.03c-.04-.08-.07-.14-.08-.2l-.04-.52c.2-.11.2-.27 0-.42 0-.1.08-.18.01-.29-.01-.02.06-.1.09-.15-.13-.06-.16-.26-.07-.36l.16-.18-.21-.03v-.62l.2-.06v-.06c-.09-.13-.1.03-.18.04a1.24 1.24 0 0 1 0-.47c.03-.21.03-.43.02-.64 0-.2-.02-.4.08-.57l.02-.04c-.13-.1.03-.13.04-.19-.1-.2-.1-.25.03-.34-.02-.05-.05-.1-.05-.15.01-.12.06-.24.07-.36 0-.1.01-.19.13-.25.1-.05.04-.13-.04-.17.23-.22.48-.31.77-.38.34-.08.68-.12 1.02-.14.09-.13.23-.06.33-.1.1-.05.16 0 .22.06.22-.15.44-.2.7-.16l-.07.06.03.03.12-.08-.01-.03-.08.02c.1-.04.18-.15.3-.02.01.02.1-.01.14-.02h.03c.06-.06.13-.13.17.01.08-.03.14-.09.21-.1.3 0 .59 0 .88-.03.14-.01.3.05.44-.08.05-.05.16-.04.25-.04.07 0 .15.04.17.05.11-.03.18-.07.25-.06.12.01.24.05.35-.05h.02c.14.15.36-.1.48.1.16-.1.31-.08.47-.09h.18c.1-.01.2-.05.3-.03.28.03.55.1.84.06.14-.01.28.07.43-.01.01-.01.04 0 .06.02.17.13.37.05.56.06.14.02.2.06.24.17l.25-.02c.1-.01.2.1.3-.04 0-.02.12.02.19.04s.13.05.11.16c0 .02.05.06.06.1v.1l.08-.16.19-.03.16.14.05.03c.03.14.09.25.22.32.02 0 .02.06.04.07.1.01.17.05.1.17l.03.05c.05.04.1.1.16.13.12.07.14.16.13.28l-.21-.04c.06.03.12.17.2.03.15.12.17.21.05.33.28.17.24.46.26.72l-.01.02-.1-.03-.02.1c0 .1.02.22-.01.32-.02.08-.06.15-.05.24 0 .06-.07.11-.1.15l.03.1c-.1.1-.15.22-.22.33-.03.04-.08.06-.12.09l.09.03c-.1.06-.15.14-.14.22l-.2.22-.12-.03.04.2-.13-.03-.04.16c-.1.04-.18.06-.25.1-.1.09-.18.2-.3.26-.1.05-.14.14-.21.2l-.26.17c-.03.02-.07.02-.11.03l-.06.01c0 .17-.14.12-.24.15-.1.04-.18.1-.27.15-.03.01-.04.05-.06.05-.2.02-.32.14-.45.25a2.52 2.52 0 0 0-.11-.08l-.04.03c-.08.08-.16.18-.26.24-.14.07-.29.1-.43.15-.07.03-.13.07-.15.16-.02.08-.14.14-.21.2l-.14.15-.37.12-.14-.06c-.01.02-.03.03-.03.05 0 .07-.02.14-.09.16-.24.06-.42.3-.7.28-.02 0-.06.02-.07.04-.08.15-.23.18-.37.22-.05.02-.12.03-.15.07-.1.08-.17.19-.26.3l-.18-.1-.17.1.16.13c.05.03.1.05.14.09.06.07.12.07.2.07.15 0 .15.02.1.2.07-.04.12-.07.21-.1l.09.2c.21-.01.4.05.56.23.03.04.16-.05.14.1l.2.06.3.2c.03.02.06.06.1.07.19.05.33.16.45.31.03.04.1.03.15.06.16.08.32.16.48.26.06.04.1.14.16.17.07.04.17.04.25.07.04.02.09.07.12.12.06.1.14.12.24.05.09.24.35.26.52.42l-.15.03.14.13c.03-.03.06-.08.1-.08.16.01.3.14.33.32.13-.04.23.03.33.09.07.04.16.05.26.08l-.1.09.12.03h.15l.15.12-.12.15c.07 0 .13 0 .19-.02.06 0 .11-.02.17-.04l.2.26Zm2.38.51.16-.13c-.17-.03-.16.06-.16.14l-.07.09.03.02.04-.12Zm-.07-.69c-.12.06-.12.07-.08.24l.21.07-.13-.3c.07.09.17.11.3.1-.09-.11-.2-.1-.3-.1Zm8-7.07.04.07.05-.01c-.01-.02-.02-.05-.04-.05h-.06l.01-.06c-.07-.03-.17-.05-.21-.1a1.43 1.43 0 0 1-.2-.36c-.04-.11-.06-.23-.09-.35h.1l-.02-.06c-.06-.02-.08.01-.08.06l-.12-.16.18-.17-.18.05-.2-.16-.29.4c.04.08.08.17.02.28-.1.17-.23.33-.27.53a3.2 3.2 0 0 1-.26.6c-.07.14-.16.26-.25.4l-.04.18-.26.52c-.13.23-.24.47-.44.66-.02.02-.02.06-.03.1l-.06.14c-.02.04-.06.07-.07.11a.56.56 0 0 1-.22.37c.06.08.11.07.18.03l.49-.28c.11-.07.23-.13.4-.1-.1-.14.02-.14.09-.17l.3-.11c.17-.08.33-.2.5-.24.11-.02.15-.12.22-.12.19 0 .29-.13.42-.22.04-.03.09-.07.13-.07.12 0 .24-.07.35 0 .07-.11.05-.3.26-.21l.06-.05c.05-.1.1-.22.02-.33a2.5 2.5 0 0 1-.16-.24c-.04-.07-.12-.15-.1-.22.01-.16-.07-.24-.15-.35a.8.8 0 0 1-.12-.22c-.02-.06 0-.12.1-.09ZM28.3 10.86l-.16-.1c.04.12.1.1.16.1l-.1.1-.27-.13-.08.04c-.04 0-.1-.03-.12-.02-.07.08-.14.05-.22.02h-.15c-.05.01-.1.04-.15.03-.25-.05-.26-.04-.54.04a.25.25 0 0 1-.14-.04c-.03-.02-.04-.07-.06-.1-.13.07-.2.14-.32.08-.1-.05-.11.05-.14.1-.1-.07-.19-.1-.3-.04-.05.03-.11.02-.16.03l-.03-.03.14-.06-.24-.08c-.01.13-.04.26-.03.37.01.24.07.49.07.72 0 .11.06.27-.09.34.15.28.24.55.1.87.16.04.11.17.12.28l-.03.48h-.05l.09.29c-.15.07-.02.15 0 .23 0 .03.03.09.02.1-.12.08-.01.16 0 .24.02.08.02.16.02.25v.21l-.1-.09.17.5a14.89 14.89 0 0 1 .66-.37l-.11-.09.3-.07.08-.03.17-.13c.06-.04.15-.13.2-.11.13.04.04-.1.11-.12a.7.7 0 0 0 .2-.07c.15-.07.29-.2.43-.21.23-.02.39-.17.54-.28a.78.78 0 0 1 .5-.18c.1 0 .17-.05.17-.16.16.04.23-.12.36-.16.1-.02.2-.05.25-.11.15-.19.38-.22.55-.36.08-.07.2-.09.25-.17.17-.27.5-.27.7-.46.04-.03.12 0 .18-.01l.02-.03-.04-.06.22-.08.38-.2.66-.3c.1-.06.15-.15.23-.22l.41-.4-.3-.17c-.1.17-.1.17-.28.12.11-.02.15-.07.09-.18l-.2.04.12.15c-.03-.01-.06-.03-.1-.03l-.3.05.04-.17-.27.15-.08-.07c-.16.07-.31-.07-.47.02-.04.03-.15.03-.15-.05 0-.07-.04-.06-.07-.07-.15-.07-.24.04-.35.13l-.1-.2a.42.42 0 0 1-.28.23l-.07-.22c-.13.03-.25.04-.34.1-.1.06-.12.02-.16-.07l.11-.08-.02-.02-.3.22c-.06-.05-.1-.09-.15-.1-.08-.04-.05-.1-.06-.17l-.03-.02c-.12.08-.15-.07-.21-.08-.1.05-.17.1-.25.12h-.26c-.1-.13-.16-.15-.37-.07l-.02.08v.01Zm9.07 10.25c.02.1.08.13.18.1-.11-.05-.18-.18-.33-.12l.15.02Zm2.62-4-.04-.03-.12.18c.1-.01.14-.08.15-.15Zm-14.2 1.1-.02.05.2.06.02-.05c-.06-.05-.14-.05-.2-.06Zm13.32-.38.16.16c.03-.14-.02-.17-.16-.16Zm6.4-4.62.06.2c.08-.1.05-.15-.06-.2Zm-6.18 4.2h.12l-.08-.14a.33.33 0 0 1-.04.13Zm.23-.98-.05.09c.03 0 .05.02.07.03.01 0 .04-.04.03-.05 0-.02-.02-.04-.05-.07Zm-.02.7.04.02.02-.12h-.04l-.02.1Zm-.87 1.56.13-.13c-.07.01-.15 0-.13.13Zm.35-.78c.02-.06 0-.1-.04-.14l.04.14Zm-9.36-.21.02.03.09-.06-.02-.03-.1.06Zm8.86.7c-.01 0-.03 0-.05.02l.05.09.04-.02-.04-.1Zm1.55-2.04-.06-.05a.04.04 0 0 0-.04.04s.01.04.02.03l.08-.02Zm-2.03 3.71h-.03l.01.11.06-.01-.04-.1Zm-.77 1.54v-.02h-.13v.02h.13Zm.06-.84v.05l.03.02.02-.06-.05-.01Zm-1.24.43c-.06-.05-.07-.07-.09-.07l-.12.05.21.02Zm3.16-.04.02-.02-.07-.07-.02.03.07.06ZM33.21 11c0-.02-.02-.03-.03-.04l-.09.07.04.04.08-.07Zm3.87 10.4-.07-.03c-.02 0-.04.02-.05.03l.04.05.08-.05Zm.15.01-.02.05c.02.01.03.04.05.04l.12-.03-.15-.06Zm-.56.07v.03l.1-.03-.01-.03-.1.03Zm.78-.78v-.03l-.1-.02-.01.04.11.01Zm-1.65-9.77c-.02.03-.04.04-.04.06l.02.04.05-.01-.03-.1Zm2.47 8.5-.08-.04-.02.05c0 .02.03.03.05.03l.05-.04Zm.75-1.18c-.03-.03-.04-.05-.07-.06l-.04.03.05.05.06-.02Zm.39-.54v-.03h-.1v.05l.1-.02Zm.52-1.15.03.06a.3.3 0 0 0 .06-.02l-.1-.04Zm116.3-2.93c-.02-.05-.04-.12-.08-.14-.06-.04-.14-.05-.23-.08l.08-.1c-.15-.13-.35-.13-.5-.23-.06-.03-.12-.06-.15-.11-.05-.08-.07-.17-.19-.2-.05-.02-.05-.16-.07-.24-.03-.05-.1 0-.15-.1-.06-.16-.21-.27-.34-.39-.07-.06-.12-.13-.17-.2l-.06-.05a.84.84 0 0 1-.47-.4.17.17 0 0 0-.06-.04.49.49 0 0 1-.22-.3l.18-.12-.13-.18-.05-.29c-.12 0-.02.2-.17.15l-.06-.17.1-.05-.08-.13c.13.1.25.02.38 0l-.06.19.04.02.1-.06-.08-.15c-.07-.04-.13-.09-.25-.03.06-.14.2-.2.24-.15.13.12.11-.07.18-.08l-.31-.03v-.19l.38.04c-.1-.17-.28-.2-.38-.07l.02.04h-.14c0 .08.03.14.01.2-.02.1.02.23-.13.27-.05-.03-.09-.09-.17-.09-.09 0-.17-.05-.26-.07v-.05c.07 0 .14 0 .19.02.1.06.18.03.25-.05-.16 0-.03-.17-.13-.2l-.13.16-.2-.05c.13-.05.1-.16.14-.24l.14-.26c.15-.06.36-.03.4-.26.09-.05.17-.1.26-.13a4.44 4.44 0 0 1 .7-.24h.18l.06-.09c.12.05.24.09.33-.05l.14.09a.4.4 0 0 0 .04-.05c.05-.07.1-.1.18-.07a.4.4 0 0 0 .43-.03l.71.06c.28.01.55.02.83.01.06 0 .14.04.2-.06 0-.02.1 0 .16.01.07.02.13.1.22.02l.07.05h.08c.06-.14.16-.06.25-.04.09.01.18.08.26-.03.02-.02.08 0 .12 0 .17.02.35-.1.52 0 .1-.05.21-.04.33 0 .02.01.07-.05.13-.1.12.06.22.28.38.07l.07.1.05-.01c.06-.1.12-.13.23-.04.09.07.12 0 .12-.05.21.02.42.02.62.06.1.02.23-.04.3.09 0 .01.05.02.06.01.21-.1.42-.03.63 0 .16.03.33.02.5.01.1 0 .2-.02.27.12l.06-.12h.04c.19.12.41.14.62.2.08.03.18-.02.23.1 0 .02.05.02.08.02.23.02.56.1.69.17.03.02.04.07.07.08.06.03.15.1.19.07.15-.07.28.02.41 0l.14.37c.01.03.03.07.05.07.26.07.2.31.24.49.06.28.03.58.09.87.02.14.02.3.01.44 0 .12-.02.23.04.33l-.06.13c.12.15.09.36.1.56.01.43 0 .86.02 1.29l.03 1.24c0 .3-.04.62-.01.92v.57c0 .28.07.57-.02.86-.04.13 0 .29 0 .43l-.03.76c0 .13-.05.26.01.4.02.02-.02.08-.05.15.05.09.08.21-.04.33.03.1.14.2.03.32-.02.01 0 .08.02.11.06.12.04.22-.07.31.08.12.08.24.03.37-.01.05-.02.08.01.13a.3.3 0 0 1 0 .21c-.04.16 0 .33-.02.48-.07.42-.05.84-.08 1.26-.02.34-.15.65-.16.99 0 .1-.06.16-.16.16-.2.01-.4.02-.58-.05l-.12-.04c-.14.02-.17-.05-.22-.16-.04-.09-.12-.2-.2-.22-.12-.02-.14-.1-.17-.18.05.04.09.1.2.06-.03-.07-.03-.16-.07-.2-.06-.07-.13-.02-.22.06l.18.02v.03l-.1.03-.14.04.04-.32c-.1.14-.14.27-.3.22l-.09-.14.14-.1c.06-.06.06-.11-.01-.15l.01.15-.18-.01v-.41c.08-.1.1 0 .15.08.1-.07 0-.13.04-.2l-.16-.03-.06-.29c.1-.04.22-.07.22-.21-.14-.09-.1.14-.2.12-.02-.1-.03-.19-.06-.28-.02-.1.01-.12.11-.12.06.01.1-.02.1-.09l-.3-.08c.05-.1.1-.18.13-.27-.07-.14-.15-.28-.06-.45.02-.03.03-.1.01-.12-.1-.12-.04-.25-.03-.36.03-.24.01-.48.01-.73 0-.16 0-.32-.04-.47v-.04c.16-.18-.05-.42.11-.59-.09-.1-.05-.27-.2-.34l-.14-.07-.44.29-.77.45-.12.1c-.05.04-.1.1-.16.1-.2.05-.34.2-.5.3l-.17.08c-.07.04-.16.06-.2.12-.19.2-.44.29-.65.44l-.46.28c-.01.01-.03.04-.05.04-.19.02-.3.16-.44.26-.12.08-.27.1-.35.23-.01.02-.06.04-.08.03-.1-.01-.18.05-.26.1l-.69.47a.82.82 0 0 1-.26.13.8.8 0 0 0-.2.11c-.18.11-.39.17-.52.34-.06.07-.17.08-.25.13-.1.08-.26.05-.37.19-.07.1-.24.13-.33.22-.16.15-.36.2-.54.3l-.56.3c-.29.14-.58.3-.86.45l-.98.56c-.38.21-.62-.01-.74-.34-.05-.1-.06-.22-.1-.34l-.3-.12.18-.19-.1-.07c.05-.21.22-.34.38-.48.38-.35.8-.64 1.22-.93.03-.03.09-.03.13-.05l.14-.08.17-.13c.09-.07.23-.07.28-.2.01-.03.05-.04.07-.05.07-.04.17-.02.19-.14 0-.04.08-.08.12-.08.18 0 .27-.15.43-.19.08-.02.16-.1.25-.16l.12.07.03-.16c.18-.02.29-.21.48-.23.08-.01.04-.24.21-.12l.12-.17.13.05a.41.41 0 0 1 .32-.28.31.31 0 0 0 .19-.11c.16-.19.4-.27.6-.39.37-.22.77-.41 1.15-.64.27-.16.55-.3.85-.4h.03c.03-.2.22-.2.34-.27.11-.08.25-.13.38-.19l.07-.05c.22-.16.43-.31.7-.4.12-.06.22-.19.32-.29.01-.01.02-.07 0-.08-.05-.05-.12-.12-.17-.12-.17.01-.2-.1-.23-.22l-.17-.08c.04.13.1.11.17.08l-.3.2c.13-.3-.16-.18-.24-.29l.14-.07c-.1-.03-.18-.14-.28-.02l-.07-.03a9.51 9.51 0 0 1-.2-.1l-.18.1.1-.23-.19.08-.02-.05c.01-.1-.07-.11-.14-.13h-.1c-.02 0-.04-.04-.06-.05l.08-.04.06-.02c-.07-.11-.18-.05-.26-.09-.07-.04-.13-.1-.21-.16-.03.02-.06.06-.1.07l-.13-.03c0-.13-.14-.14-.19-.22 0 0-.04-.02-.05-.01-.1.1-.17-.03-.25-.03-.03-.17-.06-.24-.34-.27l-.02-.12c-.13.06-.24 0-.34-.06-.11-.05-.04-.12 0-.23l-.15.1c-.06-.01-.1-.13-.22-.06-.06.04-.08-.07-.11-.13.06.06.11.07.18-.06l-.18.07-.12-.07-.18-.11c-.01-.01 0-.06.03-.1.06.14.16.16.32.12l-.15-.1-.14-.11-.18.14-.1-.07c.12-.1-.13-.15-.03-.25l.08.06-.01-.17c-.07-.05-.16-.12-.18-.11-.11.1-.25-.12-.34.06-.08-.09-.1-.15-.05-.24.03-.06 0-.1-.07-.06Zm1.86-2.27-.18-.22c-.05 0-.1.03-.18.05l.02-.14a.23.23 0 0 0-.13.1c-.02.03-.03.09-.04.08-.15-.01-.24.1-.35.14-.04.02-.11 0-.17-.01v-.04l.12-.02c.02-.11-.02-.16-.12-.16l.13.16c-.14 0-.27 0-.4.02a.2.2 0 0 0-.12.1c-.01.05.03.11.07.15.04.05.14.08.14.12 0 .1.04.08.1.08.03 0 .05.08.08.12.08.09.19.06.3.05.03.12.1.2.2.23.07.03.12.07.17.11l.07.13c.22.05.44.07.58.26.03.04.08.05.13.08.1.05.22.1.32.17.06.04.1.07.18.1.18.06.33.16.4.35.19-.02.2 0 .24.13.1.03.2.03.26.08.2.16.42.31.68.39.06.01.11.06.17.09l.41.25c-.04.05-.05.13-.04.26.1 0 .09-.19.24-.1-.12.08-.02.13.03.17.04.03.11.03.16.03.08 0 .16-.03.24-.04l.03.02-.1.12.18.06.04-.16c.07.04.14.06.17.11.04.06.05.13.07.2l.2-.12c-.02.22.12.38.3.35.35-.06.6.1.86.3.1-.04.22-.08.24-.23l-.1-.17h.31c0-.15-.14-.03-.2-.09v-.08c-.11-.07-.08-.17-.07-.27.04-.21.1-.42.12-.63 0-.12.03-.24 0-.35-.03-.12 0-.2.03-.3.03-.1-.01-.22-.02-.33l.03-.06v-.08c-.08-.2 0-.4 0-.6l.08-.3c-.15-.07-.04-.19 0-.25.07-.14-.02-.25-.03-.38 0-.03-.1-.06-.17-.07-.03-.01-.06.01-.1.02-.02-.18.16-.08.2-.17-.09-.08-.18-.1-.24 0s-.2.12-.21.1c-.11-.14-.18-.03-.26.01-.03.02-.06.02-.1.03l-.06-.27c-.08.06-.16.1-.2.16-.1.12-.17.14-.27.02l-.1-.1-.2.24-.04-.26h-.25c0-.14-.07-.22-.2-.26l.07.13c-.1.18-.12-.15-.24-.01-.04.04-.17 0-.3 0-.11-.17-.2-.18-.36-.02h-.04l-.17-.07c.06.13.12.08.17.08l-.05.2.01-.02c-.08 0-.12-.17-.24-.06l-.07-.16c-.08.15-.27-.06-.31.13-.25-.11-.38-.08-.52.06l-.11-.13c-.13.06-.3-.05-.39.12-.13 0 .01.14-.09.18a1.08 1.08 0 0 1-.2-.07c-.04-.01-.1-.06-.11-.05-.08.09-.14-.01-.2-.02-.02 0-.03.02-.04.03l.07.08-.2-.03.05.16-.18-.14-.2.14c0-.07.1-.12 0-.2-.08.07-.03.13 0 .2v-.01Zm5.98 11.14c.07.09.07.16.05.26-.02.09.05.2.19.24-.02-.12 0-.24-.06-.3-.05-.07 0-.24-.18-.2Zm-2.48-5.83.02.21.15-.07-.17-.14Zm-2.75-5.72c.08.04.04.2.22.12-.12 0-.05-.17-.22-.12Zm5.32 11.02c-.07.14-.05.17.12.2l-.12-.2Zm.07-8.05.22-.01c-.09-.15-.09-.15-.22.01Zm-6.05-2.86c.08.08.15.08.2 0h-.2Zm6.22 4.5-.21-.08c.06.12.12.12.2.07Zm-.24 6.69-.06.04.07.07.04-.03-.05-.08Zm-7.25-2.42-.04.04.13.12.04-.04-.13-.12Zm7.26-4.43.18-.07c-.09-.07-.13-.06-.18.07Zm.2-3.88c.14-.08.1-.12.03-.18l-.02.18Zm-1.2 3.88v-.04h-.1l.01.03.1.01Zm.99 3.73c-.04-.03-.06-.05-.09-.05l-.05.05c.02.01.04.04.06.04l.08-.04Zm-.27 3.61v.04l.11.02v-.05h-.11Zm-8.08-2.16c.03-.03.04-.04.04-.06a.09.09 0 0 0-.03-.05l-.04.03.03.08Zm5.5-4.02a.47.47 0 0 1-.05-.03c0 .01-.02.03-.01.04l.03.04.03-.05Zm27.07 6.64c-.02.1-.05.17-.17.2-.07.02-.12.1-.2.13l-.43.13-.6.18c-.13.05-.25.11-.41.08-.11-.02-.24.05-.36.07-.1.02-.22.04-.32.04-.3 0-.59.05-.88.1-.26.04-.52.02-.78.04-.26.01-.52.02-.78.05-.17.02-.36-.09-.4-.26a.34.34 0 0 0-.13-.22c-.05-.04-.07-.1-.1-.16l-.14-.28a.94.94 0 0 1-.06-.2c-.03-.2-.1-.39-.06-.56.05-.21.03-.4-.04-.6v-.02c.12-.18 0-.35-.02-.53 0-.1.04-.18.03-.27-.03-.15 0-.3-.04-.46-.04-.1 0-.24.01-.37v-.12l.07-.14-.1-.1c0-.23 0-.45-.02-.68-.03-.25 0-.5-.01-.76-.02-.35.02-.71-.05-1.07-.03-.15 0-.31 0-.47l-.05-.57c-.02-.16-.01-.31-.02-.47 0-.08-.03-.16-.04-.24l-.03-.14.02-.05c-.15-.16.07-.4-.1-.55a.06.06 0 0 1-.01-.07c.09-.24-.03-.47-.04-.7v-.1l.1-.26c-.22-.07-.11-.23-.1-.36 0-.09.03-.18-.02-.27v-.13c.04-.12.02-.2 0-.32-.03-.1-.03-.23.03-.3.08-.1-.11-.16 0-.23l.2-.11.05-.08v-.17l-.14.08.14.09h-.13c-.03-.01-.1-.07-.09-.07.06-.12-.05-.21-.04-.32.01-.08-.05-.2.07-.26 0 0 .02-.03.01-.05a1.3 1.3 0 0 1 0-.63c-.11-.12.02-.24 0-.37-.02-.08.02-.16.04-.29-.1-.27.08-.54.42-.57.14-.02.27-.06.4-.1.23-.09.47-.18.73-.21.2-.03.39-.1.59-.15l.6-.16.12.02c.05 0 .1 0 .15-.02.39-.15.8-.17 1.21-.17h.06c.08-.1.16-.1.24 0 0 0 .04 0 .06-.02.13-.1.27-.06.4-.03a.3.3 0 0 0 .13 0c.14-.04.28-.07.43 0l-.09-.09c.08-.04.14-.04.21.02.05.05.13.07.2.07h.3c.03 0 .07 0 .08-.02.1-.14.22-.06.33-.03.08.02.16.06.22-.02.01-.02.05-.02.06-.02.17.14.37-.02.54.08.03.02.08.03.1.02.13-.07.24.01.36.04l-.05.1c.05 0 .1.02.13 0 .13-.1.27-.08.41-.02.04-.13.12-.12.2-.08l-.02.08c.12.05.24.08.36 0a.12.12 0 0 1 .06-.02c.17 0 .35-.02.5.04.11.05.22 0 .32.05s.23.06.33.11c.27.13.57.12.85.22.1.03.2.07.32.13l-.17.06.63.13.01.14.27.02c.07.1.14.24.32.1 0 .25.23.2.33.32l-.18-.03c.11.13.24.14.34.15.07 0 .13 0 .14.06.05.14.12.24.28.26.03 0 .04.06.07.08-.05.02-.15 0-.1.1.03.07.1.04.16-.01l-.07-.1c.09 0 .14.02.18.11.06.15.1.32.17.47h.16l.02.06c.05.1.04.23.17.28l.01.02c0 .17.13.28.2.41.09.14.07.28.12.41.03.07.06.16.12.2.08.05.1.11.08.18-.06.18.04.32.11.46.07.13.1.25.05.4-.02.06 0 .15 0 .24a9 9 0 0 1-.22-.02l.25.18c.02.1-.05.17-.16.23.04.04.1.07.1.1.02.06 0 .12-.02.18-.07.19-.15.38-.19.58-.02.11-.07.22-.08.34l-.03.02c.1.13-.08.16-.08.26-.01.1-.06.2-.1.3-.02.08-.02.18-.13.23-.05.03-.06.13-.1.2-.03.07-.02.18-.15.2-.03.02-.02.16-.05.23-.06.2-.12.4-.3.5-.06.2-.23.26-.36.37-.1.08-.11.24-.17.38l-.07-.14-.2.25.14.08c-.07 0-.1.02-.14.01-.05-.01-.11-.06-.1.06-.09 0-.07.09-.1.14h.01c-.14.06-.18.2-.23.34a2.03 2.03 0 0 0-.1-.06l-.13.2c-.03.04-.06.15-.16.07l-.09.05c-.06.12-.12.25-.2.37a.45.45 0 0 1-.19.13c-.1.04-.15.1-.13.21l-.25.04.17.12c-.08 0-.13 0-.18.02l-.1.03c-.01.17-.2.18-.26.3l-.18.38c-.08.01-.17-.12-.25.02l.04.09-.02.01c-.17.14-.35.27-.57.35-.15.06-.26.24-.39.36l-.25.24c0-.06 0-.1.02-.15-.3.18-.58.32-.76.6l-.05-.04a.2.2 0 0 1-.03-.02l-.04.02c-.08.16-.1.17-.25.16h-.06a.96.96 0 0 1-.48.21c-.06.14-.16.18-.29.13-.04.04.03.14-.07.16-.1.02-.18.11-.3.02v.17c-.03.11-.09.1-.15 0-.07.2-.21.2-.36.2-.02-.08-.08-.1-.19-.1l.12.17.08-.07-.01.01Zm6.56-10.33-.12.37.26-.08-.14-.3c.1.05.17.04.24-.01l-.24.02Zm-9.45-2.25-.02-.16c-.09.08-.09.13-.01.18-.15-.07-.29-.17-.48-.13l.03.1-.17.02.03-.14c-.1.02-.18.01-.23.05-.1.08-.19.04-.28.02l-.15-.05a.2.2 0 0 0-.24.15 1 1 0 0 0 0 .25c0 .1.03.19.05.27l-.11.07c-.01.17.19.24.16.41-.01.15.01.3.02.44 0 .06.07.11.08.17.01.06-.03.13-.05.19.17.2.17.42-.02.54l.2.1-.05.26v.07c.1.08.06.2.09.3.09.38.08.78.12 1.17.01.08-.02.17-.03.27 0 0 .04.02.04.04.01.12.04.25 0 .37-.03.15-.03.3.07.42l-.08.1c.02.08.06.14.06.2 0 .18-.03.36-.01.54 0 .1-.13.2.01.28-.07.15.04.3 0 .46a.36.36 0 0 0-.02.2c.03.09-.03.11-.1.15l.13.04c.02.08-.14.06-.06.16.1.14.02.31.05.47.03.17.03.35.04.54l-.11.1.14.04-.02.07c-.01.08-.07.18-.04.23.05.07.04.12.02.18-.02.07-.05.2-.03.22.09.05-.03.18.1.2 0 .08.03.18 0 .25-.05.08-.03.14-.01.22.03.12.08.28-.09.38.14.04.14.14.15.26.02.37.1.44.44.44h.05c.29-.04.6-.03.84-.23.42-.13.8-.34 1.18-.56.55-.33 1.12-.64 1.63-1.03l.31-.23.17.08-.07-.14c.17-.1.32-.21.49-.3.3-.17.55-.38.8-.6l.95-.9c.26-.26.51-.54.75-.82.18-.2.33-.44.5-.66l.49-.68c.1-.14.17-.28.25-.42.05-.09.03-.22.18-.2l.02-.05c.01-.17.1-.3.2-.43l.12.03-.1-.18.23-.33c.07-.13.16-.26.2-.4.02-.1.13-.22 0-.3l.16-.3.31-.18-.09-.08c-.03-.07-.06-.15-.17-.1l.04-.32.12.16c.02-.05.02-.1.05-.13.03-.04.09-.05.13-.08.14.07.02.28.2.32.07-.22.07-.23.21-.1.03-.06.09-.16-.03-.15-.1 0-.13-.06-.17-.11-.12-.12-.12-.12-.3-.05a.74.74 0 0 1-.26.03c-.02 0-.05-.06-.06-.09l.33-.2-.47-.11c-.03-.09-.03-.16-.06-.18-.1-.07-.13-.17-.1-.29-.11-.02-.25.02-.28-.15 0-.02-.1-.04-.16-.04-.03 0-.07.05-.11.08l-.13-.1c-.16-.12-.17-.12-.34 0h-.05l.04-.18-.13.06-.09-.1-.1.14-.12-.27c-.02.17-.09.25-.23.25V11c-.13.04-.23.04-.31 0l.12-.15c-.12.04-.2.1-.28.15l-.06-.02.06-.2c-.25.2-.3.21-.44.09-.2.07-.4.08-.56-.07l-.17.08-.22-.26.02.26-.3-.27-.1.18c-.05-.01-.1-.04-.14-.04-.05 0-.1.03-.15.04 0-.05 0-.09.02-.15-.14.14-.2.04-.25-.06l-.1.06-.23-.1-.02.03.13.08h-.38l.03-.1c-.12-.03-.25-.04-.33-.1-.07-.06-.12-.03-.18-.02-.1 0-.2.03-.31.05l.02.1c-.04 0-.08 0-.11-.02-.07-.01-.19.09-.2-.08h-.08l-.1.06c-.13-.03-.23-.03-.3-.08-.2-.15-.35.04-.53.05l-.01.08c-.05-.03-.1-.08-.12-.07-.17.05-.32-.01-.48-.05l-.12.02-.3.04-.06.13-.03-.16c-.13.05-.25.1-.37.13Zm9.75 2.94c-.09.02-.17.05-.19.03-.09-.08-.12 0-.18.05.12-.03.24.07.37-.08Zm-.61-.2-.09-.1c-.03.03-.08.07-.07.09 0 .03.04.06.08.08l.08-.07Zm.39-.04c-.05-.04-.08-.07-.1-.07a.3.3 0 0 0-.13.03v.05l.12.03.1-.04Zm-.17-.6c.05.12.13.08.24.07-.09-.06-.14-.12-.24-.06Zm-5.98-2.4c.07.07.13.08.19.03l-.2-.03Zm-6.6 1.92c.05.07.1.08.15.01l-.15-.01Zm12.46.87c-.05-.04-.07-.07-.08-.06-.03.01-.05.04-.07.06l.04.04c.03 0 .06-.02.1-.04Zm-1.08-2.16-.04-.01c-.03.04-.1.07-.03.16l.07-.15Zm-11.35-.07-.02.09.04.03.03-.07-.05-.05Zm5.56 12.57h.04v-.09h-.04v.09Zm6.93-11.77c-.07-.01-.1 0-.1.06l.1-.06ZM137 9.17c.02-.04.03-.1.06-.12a.42.42 0 0 1 .2-.09c.2-.01.37-.1.56-.14a.54.54 0 0 1 .21 0c.11.01.19-.01.21-.1l.46.05c.03-.13.14-.15.23-.12.23.08.45-.04.68 0 .12.03.24-.05.38-.05.27 0 .54-.05.82 0 .13.02.28-.04.42-.05.13-.01.28.03.4-.01.22-.08.42-.01.62-.03.12-.01.24-.06.36.02h.06c.27-.13.55-.03.83-.04.13 0 .27.04.42.05.1 0 .19.08.3.01.02-.01.08 0 .12.02.1.05.2.11.32.02h.06c.2.13.44 0 .64.14.03.02.13-.07.21-.11l.57.05-.05.17c.1-.05.17-.1.25 0 .04.04.16.02.27.04l-.1-.08.02-.03.38.1c.06.03.15.08.2.05.13-.06.2.01.24.11.15-.04.28-.04.41.05.05.03.14.02.23.02v.06c.13.06.22.2.4.18.14-.02.28.1.31.24l.04.18h.12v.26l.15.13c.13.19.14.41.15.64v.43c0 .08-.04.16-.06.23l-.1.33-.01.07c-.16.15-.17.4-.34.54a.34.34 0 0 0-.08.12.32.32 0 0 1-.28.22c-.04 0-.07.04-.12.06l.01.16c-.19.05-.29.22-.46.29h.08c.03 0 .04-.03.08-.05v.08c-.1.02-.16.1-.19.19l-.17-.07v.09c-.24.2-.59.2-.74.51 0 .02-.03.02-.05.03-.17.07-.32.18-.5.2-.06 0-.13-.03-.22-.06.04.06.06.1.1.13-.07.17-.2.24-.37.28-.11.04-.2.15-.3.23l-.06.04c-.12-.04-.18 0-.21.12a.1.1 0 0 1-.05.05l-.42.22-.1.07a.69.69 0 0 1-.23.08c-.05.05-.08.13-.14.15-.23.1-.44.24-.7.3-.09.01-.16.13-.24.2-.03.02-.08.05-.11.04-.1-.03-.18.03-.25.07-.13.08-.25.15-.39.2-.04.02-.06.07-.1.11l.12.06-.01.02-.27.02c.2.16.34.31.56.4.2.08.37.22.55.34.19.12.37.26.57.37.07.04.03.15.12.14.1-.02.14.05.2.11.03.05.15.04.18.09.12.18.34.22.5.35.18.16.38.3.6.42.07.05.12.1.18.17.05.05.15.06.22.1l.55.4c.16.13.33.24.5.35.26.16.5.35.75.54.22.16.47.31.67.5.13.13.3.16.42.3.12.12.28.2.43.29.07.03.12.1.18.15.1.12.22.18.32.28.21.18.48.27.68.48.17.17.39.3.58.44.1.08.16.17.16.31 0 .2-.02.36-.1.53-.05.12-.14.18-.25.16-.15-.02-.23.05-.33.14l.1.13-.23.07c-.2-.1-.39-.2-.57-.32-.12-.07-.2-.19-.13-.35l-.04-.02-.1.1c-.03.06-.15-.06-.22-.2h-.18c-.09-.02-.09-.08-.1-.15-.01-.04-.1-.11-.12-.1-.1.04-.15-.06-.23-.09-.18-.07-.3-.25-.5-.3-.03-.01-.06-.06-.08-.1-.05-.08-.12-.11-.2-.05l-.37-.3-.75-.49-.34-.23-.68-.4-.15-.12c-.19-.11-.37-.25-.57-.33a1.3 1.3 0 0 1-.48-.3c-.05-.05-.14-.07-.2-.1-.03-.1.14-.15.03-.25-.06.04-.12.11-.16.1a.67.67 0 0 1-.3-.1c-.1-.04-.2-.08-.27-.15-.1-.09-.15-.2-.23-.32l-.08.08c-.25-.07-.31-.28-.4-.49l-.2.1c-.15-.04-.28-.1-.35-.27.18-.07.02-.12.02-.2l-.14.08.13.12a1.4 1.4 0 0 1-.71-.38c-.05-.05-.12-.08-.18-.11-.14-.09-.15-.11-.11-.28v-.1l-.15.1c-.04 0-.09-.03-.16-.06l.2-.1c-.11 0-.05-.19-.22-.14-.07.03-.18-.07-.24.08l-.29-.22c-.07-.04-.15-.09-.24-.02-.08.07-.18.07-.24.17-.03.04-.1.04-.16.07l.08.06c-.04.14-.3.04-.26.24-.3-.09-.29.2-.44.32l-.05-.1c-.27.2-.34.42-.26.73v.04c.01.36.14.7.1 1.06 0 .1.04.22.04.34v1.01c0 .22.07.43.06.64-.03.3.1.6-.01.9-.03.07.01.2-.03.23-.1.09-.17.2-.3.27-.28.12-.54.18-.82.04a.5.5 0 0 1-.14-.1c-.05-.05-.1-.1-.18-.08-.04 0-.11-.02-.12-.04-.04-.11-.12.02-.16-.03a.46.46 0 0 0-.05-.31l-.07.2c-.12-.05-.09-.13-.05-.18-.05-.06-.1-.1-.12-.15-.04-.11-.09-.23-.07-.34.01-.12-.11-.23-.02-.35-.07-.1-.04-.22-.04-.33 0-.1.05-.2-.04-.3-.03-.04-.07-.2.04-.28.05-.04.02-.1 0-.16a1.1 1.1 0 0 1-.07-.54c.03-.2.05-.4 0-.6-.02-.07-.08-.18.03-.25.01 0 0-.04 0-.07-.06-.12-.02-.24.01-.36 0-.03.03-.09.02-.1-.09-.1-.06-.22-.06-.34-.01-.2.04-.4-.04-.6.11-.18-.06-.4.06-.6l.01-.03c-.13-.16.02-.34-.03-.5-.12-.37 0-.76-.04-1.13-.01-.08.02-.16.03-.24 0-.03.02-.07.01-.1l-.04-.66v-.09c.04-.24.06-.48.03-.72-.01-.05-.02-.1 0-.13.07-.24 0-.48.02-.71.02-.32.02-.63 0-.95-.02-.12.01-.23.01-.35 0-.05 0-.1-.02-.14-.02-.07-.07-.14.04-.18l.02-.03c-.1-.09.02-.18-.02-.29-.03-.08.03-.2.06-.32-.01-.02-.12-.04-.02-.13.01-.01-.05-.12-.07-.18l-.07-.2c.14-.11.02-.3.1-.45l.21-.08-.22-.02c.01-.14 0-.28.03-.4 0-.04.07-.07.1-.1-.1-.07 0-.16-.01-.25 0-.1-.06-.18-.1-.28v-.02Zm6.02 1.35c.02-.1-.05-.1-.12-.1-.02.01-.03.07-.06.14l.19-.05c-.07.13-.19.12-.31.12v-.14l-.37.17c-.1-.16.22-.14.1-.27-.11.03-.25.11-.31.07-.12-.06-.23 0-.34-.05l.04.15-.25-.17v.15c-.11.01-.24.06-.33.02-.15-.06-.3-.05-.44-.05h-.18v-.18l-.29.16-.04-.16c-.1.15-.14.19-.23.16a1.3 1.3 0 0 0-.7 0l-.07-.13-.17.06-.16-.12-.11.08c-.07-.11-.15-.14-.22-.07a.3.3 0 0 0-.08.19c0 .14.02.29.04.43.03.16.1.31.05.48l.03.1.02.24c.01.12 0 .25.03.37.03.22.05.45.01.67 0 .03-.02.07 0 .08.07.14.04.29.04.43.02.2 0 .39.02.58l.07 1.21v.57c0 .12.11.19.19.11.05-.06.1-.11.18-.12.08-.01.15-.08.22-.12.1-.05.22-.1.3-.18.15-.12.28-.24.46-.28.03 0 .08-.02.08-.04.04-.16.2-.17.3-.25.18-.14.37-.25.56-.36l.36-.2c.22-.11.4-.3.67-.35.08-.01.14-.1.21-.14l.21-.16c.15-.11.32-.2.47-.29.17-.1.38-.18.5-.34l.04-.02a3.58 3.58 0 0 0 1.05-.7c.1.07.13-.02.18-.06l.4-.28c.07-.05.16-.15.22-.13.15.05.18-.17.32-.11.07-.2.3-.17.42-.33.1-.14.34-.13.44-.3h.1c.01-.06.01-.15.03-.16.16-.05.15-.19.21-.3-.62-.1-.75-.1-.88.04l-.16-.15-.12.21c-.1 0-.24.05-.29 0-.09-.08-.2-.05-.3-.1-.06-.02-.16-.04-.21-.02a.94.94 0 0 1-.48.09c-.16 0-.24-.1-.33-.17-.15-.02-.26.23-.42.05l-.16.16.02-.19c-.12.03-.23.05-.33.1-.09.04-.13 0-.19-.04.07-.01.14-.02.07-.14l-.06.14h-.13Zm-2 7.24c-.13 0-.2-.16-.35-.06.1.08.19.17.35.06Zm4.54-7.23c.08.04.16.13.25.02-.07-.15-.17-.05-.25-.02Zm-6.6 5.86.03.01.1-.1-.13-.1v.2Zm5.78-3.66c.04-.05.04-.1 0-.15-.1.04-.02.1 0 .15Zm1.94-1.1c-.1-.05-.16-.05-.19 0h.2Zm-3.53 7.65-.03.04.14.14c.03-.15-.05-.16-.11-.18Zm-.27-.27.2-.1c-.1 0-.19-.04-.2.1Zm1.9 1.35v.05l.14.01v-.04l-.14-.02Zm-7.26 2.62-.05.03.06.1.03-.02-.04-.1Zm12.63.7a.8.8 0 0 1 .05.03l.06-.08-.04-.04-.07.08ZM140.1 10.4l.04-.05a.04.04 0 0 0-.04-.04l-.04.03c0 .02.02.04.04.06Zm10 13.16v-.02h-.06c-.06.01-.08.04-.02.08l.09-.06Zm-7.86-4.88v-.03l-.1.02.02.03c.03 0 .06 0 .08-.02Zm-4.95 4.28.02-.03-.07-.06-.03.03.07.06Zm6.24-3.56a1.5 1.5 0 0 1-.03-.04l-.11.1.03.03.11-.09Zm1.45-6.86v.02l.12.07.01-.04-.13-.04Zm-3.64 5.3c.01 0 .02 0 .03-.02a3.53 3.53 0 0 1-.08-.09l-.03.02.08.1Zm-120.72-1.2c.07-.13.17-.18.3-.16.13.02.26-.06.38.03.02.02.09-.03.16-.07l-.14-.06.33-.04-.13.14c.2.05.13-.07.13-.14l-.03-.01.02-.01.1.05.12-.02c.04.1.1-.04.14.02.02.03.05.07.11.08l-.02-.14.05.02c.1.03.2.05.28.1.08.04.15.1.09.2-.07.1.05.13.07.21l-.08.11.16.03c.07.04-.06.13.04.18l-.07.15.12.07.09-.13-.01-.01.11.1c.03.14.06.24.07.35 0 .07.05.16-.04.22a.14.14 0 0 0-.04.1.97.97 0 0 1-.2.58l-.02.06c-.02.12-.1.18-.21.18l-.3.5-.17-.02c-.07.18-.16.33-.4.37l.11.1c-.1.06-.22.1-.31.2-.09.08-.14.2-.22.33-.08.03-.24-.02-.22.17-.12.1-.17.27-.35.29-.02.06-.03.13-.07.16-.18.1-.28.29-.48.36 0 .1-.12.1-.16.18-.07.16-.27.2-.37.35-.16-.03-.18.14-.23.22-.06.1-.1.14-.2.1-.09-.03-.14 0-.16.07-.02.07-.05.11-.13.12-.04 0-.08.04-.1.06-.1.07-.17.15-.25.23h-.02c-.23.09-.2.13-.4.26-.15.1-.27.26-.47.3-.06 0-.1.05-.15.07-.05.02-.1.02-.18.03l-.02.11c-.03.01-.07.04-.1.04-.12.02-.2.04-.27.17-.05.1-.23.16-.36.17-.1 0-.17.09-.24.05-.14-.06-.12.13-.24.1-.02-.01-.06-.05-.1-.06-.03 0-.07.03-.11.04l-.1-.14-.14.1.1.06c-.04.03-.07.08-.1.08-.16-.03-.31.04-.46.07-.18.02-.38-.02-.55.07-.13.06-.22-.01-.24-.17l-.13.12c-.03-.17-.03-.17-.12-.22-.06.14-.2.21-.4.2l.06-.06-.06-.12c-.05-.07-.1-.1-.17 0-.01.01-.07.03-.1.01-.05-.03-.1-.03-.12.03 0 .03.05.07.07.11-.12-.02-.25-.03-.38-.07-.22-.08-.46-.08-.68-.18-.15-.07-.3-.15-.46-.21a.45.45 0 0 1-.14-.18c-.04-.08-.2-.1-.3-.15h.01c-.03.04-.06.08-.1.1-.03.02-.08 0-.13 0l.06-.1-.06-.03a.51.51 0 0 1-.37-.2.3.3 0 0 0-.13-.08.47.47 0 0 1-.26-.18c-.07-.1-.2-.18-.31-.25-.11-.07-.22-.13-.28-.26-.02-.06-.15-.05-.14-.16-.18-.06-.16-.24-.23-.36-.01-.02-.02-.06-.04-.07-.13-.1-.13-.1-.03-.23-.04-.08-.03-.22-.2-.18.06-.13.06-.23-.07-.3-.05-.02-.08-.08-.12-.12l.15.04-.03-.1-.04-.11-.07.18-.05-.36-.16-.1.07-.22c-.13-.02-.13-.13-.15-.22-.07-.27-.12-.55-.2-.82-.03-.13-.1-.26-.17-.4l.13-.1-.14-.1c0-.19.08-.36-.05-.53-.02-.03-.01-.08-.02-.12-.01-.1.05-.2-.03-.31-.02-.03.04-.1.04-.16v-.43c0-.08.04-.15.04-.22 0-.33.02-.65.09-.98.05-.2.04-.42.05-.64 0-.14.03-.25.18-.32a5.23 5.23 0 0 1-.1-.11c.06-.13.14-.26.14-.42l.02-.06c.09-.07.17-.14.1-.26.06-.18.1-.36.25-.5.05-.05.1-.08.07-.18-.01-.02.03-.07.05-.1.12-.2.2-.39.24-.6 0-.04.05-.08.07-.11.04-.05.1-.1.1-.16.05-.2.21-.34.3-.52.02-.04.07-.05.1-.09a.48.48 0 0 0 .06-.09c.02-.04.03-.1.06-.1.18-.1.25-.3.41-.4.07-.05.12-.13.18-.18.03-.02.08-.01.12-.02 0-.08.07-.17.2-.29l.22.1-.12-.34.25-.29c.03-.02.08-.07.1-.06.15.03.2-.08.28-.16.12-.13.21-.28.45-.22l-.08-.14c.04-.02.09-.06.13-.06a.61.61 0 0 0 .38-.17c.02-.02.08 0 .14 0-.01-.1.06-.13.14-.15l1-.26c.06-.01.13.01.2.02h.08c.1-.14.26-.07.38-.11.1-.04.22.05.33 0 .16-.08.32 0 .48.03.21.03.44 0 .65.09.14.05.28.12.44.04h.04c.15.16.36.14.55.18.08.02.14.1.22.13.13.05.26.09.35.2.02.03.1.02.16.01.09-.02.14 0 .16.1l-.19.06c.14.05.2.05.18-.07l.19.09c-.05.01-.08.06-.08.13a.22.22 0 0 0 .08-.15l.11.06c.16.07.18.11.15.3l.3-.01c-.06.12-.03.21.09.22.16.02.15.14.18.23.02.07 0 .15 0 .2l.36.28c.02.02.02.07.02.1l-.02.08v.08c.14.03.26.08.28.25 0 .02.05.03.06.05.05.07.1.14.12.22.02.11-.05.23.03.35.06.09 0 .22.11.3-.08.1.02.18.02.29l-.14.02.17.11c0 .01.02.03.01.04-.01.1-.06.19-.03.3 0 .03.03.16-.08.2v.04c.11.08.04.2.01.27-.07.26-.17.5-.26.75v.09c-.04.05-.19-.06-.16.1 0 0-.06.04-.09.04l-.43.05-.09-.3-.07.02-.17-.23c.05 0 .12.03.18-.08l-.18.08-.19.1.05-.35c.12 0 .05.1.09.14.06.04.16-.05.23-.25h-.23c.08-.22.05-.46.24-.64-.1-.04-.12-.03-.19.07l-.04.12c-.02.09-.07.12-.16.1-.05-.02-.1-.02-.16-.03l-.09-.38h.14c.06-.2-.12-.05-.15-.13l-.05-.26.13-.09v-.03l-.16.02-.01-.12a.7.7 0 0 0-.25-.46c-.1-.1-.2-.18-.37-.15l.06-.1c-.01-.1-.24-.04-.14-.21-.07 0-.14.05-.18-.04l-.15.12c-.02-.1-.23 0-.2-.2l-.19-.05c-.1-.03-.19-.04-.27.06-.08.08-.1.06-.25-.04-.02-.02-.08-.02-.12 0-.1.04-.21.1-.34.01-.04-.02-.14.05-.21.08-.04-.03-.08-.09-.13-.08-.05 0-.1.06-.16.1l-.19-.1c-.08.16-.22.11-.34.11-.13 0-.24.18-.4.03-.07.21-.23.3-.43.36l.07.08-.37.2-.04.09h-.16c.02.1.02.17-.09.22-.07.03-.13.1-.2.17.1.24-.19.19-.26.3v.24l-.13-.07-.19.27.15.05a.28.28 0 0 1-.26.02c-.02.16-.03.34-.15.5a2 2 0 0 0-.13 0c.16.07-.06.18.04.25 0 0-.02.06-.04.07-.15.07-.19.2-.21.35 0 .03-.02.07-.05.1a.64.64 0 0 0-.2.4c0 .02 0 .05-.02.07-.23.27-.23.64-.38.94-.05.1-.03.24-.05.36a.4.4 0 0 1-.06.17.5.5 0 0 0-.04.32c.02.11-.04.14-.13.17l.1.13c-.04.15-.12.3-.05.46.01.03 0 .08-.02.12 0 .03-.04.07-.03.08.11.21-.06.42-.01.63l.05.2-.1.03.1.05c-.03.26.15.51.1.8.19.05.08.31.26.4-.08.17.18.3.07.47l.13.1.19.34c.05.1.05.08.2.11.07.02.16.05.2.15 0 .02.07.03.12.06 0 .02 0 .08.03.13 0 .03.04.06.05.06.1-.06.2.03.3.02.18-.01.19-.01.28.17.03-.01.06-.04.09-.03.15.05.3.04.46-.01.04-.02.1-.07.13.03l.1-.01c.13-.06.13-.07.23.03.19-.04.38-.08.56-.14.31-.11.64-.15.94-.32.09-.05.17-.1.25-.17l.23-.16c.22-.13.45-.25.67-.4.11-.07.24-.14.33-.26.07-.1.22-.16.35-.2a.4.4 0 0 0 .22-.12l.48-.5c.05-.03.11-.05.16-.09a.88.88 0 0 0 .12-.09c.07-.06.14-.18.22-.19.15-.02.15-.11.17-.2.2.01.2-.16.3-.26.07 0 .15 0 .22.02l-.07-.27c.12-.06.22-.11.24-.26 0-.05.1-.1.17-.11.12-.02.17-.1.19-.19.02-.08.06-.12.11-.17.09-.08.21-.12.22-.26.22-.1.26-.38.5-.46.03-.01.05-.07.09-.11l.09-.08c.06.05.12.04.16-.03l-.17.04Zm-9.23-5.6c.04.04 0 .16.12.1 0-.08-.06-.09-.12-.09l-.06-.07-.07.11.13-.04Zm7.9 7.85-.13-.03v.04l.14-.02.03.13h.04l.02-.2-.1.08Zm-9.47 3.04c-.06-.05-.1-.04-.14.05l.15-.05c-.04.1-.02.15.07.17l-.08-.17Zm-.23-.18.07-.02-.01-.15-.11-.13-.1.1c.12.02.15.1.15.2Zm8.99-8.61.04-.03-.1-.17c-.05.12-.02.17.06.2Zm-6.77-2.79-.05.02.04.1h.04l-.03-.12Zm8.86 6.93.01-.03-.01-.01c-.05 0-.14-.08-.15.06l.14-.02Zm-2.5-5.05c0 .1.04.15.1.12-.02-.04-.05-.06-.1-.12Zm1.56 6.11.02-.04a3.78 3.78 0 0 1-.1-.07l-.03.04.1.07Zm-3.53-7.2-.05.04.05.08.04-.04c0-.03-.02-.05-.04-.08Zm2.06-1.34-.03-.02-.05.1.03.02.05-.1Zm-6.94.69v.02c.04 0 .07.02.1.03l.01-.03-.1-.02Zm8.65 7.77-.08-.04-.02.04.05.06.05-.06Zm-.32-6.7-.04.02.06.08.03-.01-.05-.09ZM9.24 13.4l.05-.04-.04-.04c-.01 0-.04.02-.04.04l.03.05ZM198.27 11a1.2 1.2 0 0 1 .04-.73l.06.13.12.14-.2.05c.03.13.14.02.2.08v.12c.17.03.1-.21.26-.18-.09-.1-.17-.16-.07-.27v-.09l-.03-.18-.03-.01c-.08.05-.16.06-.22-.01-.04-.06 0-.16.11-.21l.27-.09.8-.2c.02-.01.05-.03.08-.03.23 0 .46-.07.68-.12.08-.02.16.01.23 0 .2-.06.4-.03.6-.09l.12-.02c.26-.02.52-.04.78-.08.1-.01.15.07.27.03.13-.04.28-.03.4-.11h.07c.25.05.5 0 .75.01.03 0 .06.02.08 0 .1-.06.17-.01.22.08.05-.07.07-.14.17-.12.1.02.2 0 .3 0 0 .03 0 .06.02.1.11-.06.22-.03.33.02l.1-.14.19.04c.07.01.15.04.21.02.27-.08.54-.03.81-.03.18 0 .36-.03.54-.02.22.02.44 0 .65 0h.43c.18-.03.37 0 .55 0 .06 0 .1-.03.16-.04h.21c.08 0 .15.02.23.03.16.01.32-.06.48-.03.16.04.32.04.48.03h.48l.68.03c.2 0 .41 0 .62.02.05 0 .11.01.14.05.08.08.21.07.26.04.13-.06.22.01.32 0 .07 0 .1.05.1.1-.02.04-.07.06-.11.1l.07.1.16-.04-.12.15c.16.03.31.07.25.3h.22l-.1.07-.01.04c.1.1-.14.21.02.33-.17.03-.34-.03-.47.08.1 0 .22-.03.3.07l-.02.04c-.15-.01-.28.06-.43.06-.08 0-.19.02-.22.13l-.08.07c-.09-.05-.1-.2-.25-.15l.04.09-.25.12c.05-.07.07-.12.1-.19l-.18.06-.05-.18c-.1.19-.26.09-.39.13l-.38.05-.03.17-.18-.08.1-.07-.05-.03-.38.08c-.07.01-.12.04-.18.07l-.22.12-.02-.18-.04-.02-.13.19a6.95 6.95 0 0 1-.18-.07l.05-.15h-.4l-.03.1c-.06.03-.13.12-.23.05-.02-.01-.07 0-.1.02-.1.08-.2.05-.3.05-.03-.09.16-.16-.01-.23l-.18.21-.04-.13-.25.01c0 .04.07.13-.03.12-.19-.02-.36.1-.56.04-.1-.02-.22.06-.35.03-.08-.02-.15-.02-.17-.12l-.07-.03-.04.16c-.12-.03-.26-.13-.35.05a.3.3 0 0 1-.02-.03c-.04-.05.05-.15-.04-.16-.06-.01-.13.05-.19.09-.02.01-.03.05-.04.07h-.07c-.11-.16-.25-.14-.42-.11-.18.04-.37.03-.55.04l-1 .09h-.37c-.03 0-.06.03-.08.03-.31-.04-.61.04-.92.05-.32 0-.64 0-.97.02-.28 0-.56.03-.84.04l-.28-.02c-.31 0-.37-.01-.36.36.01.2.05.4.05.59 0 .14-.02.29-.01.44 0 .08.09.15.03.24.08.16.02.34.07.51.02.08 0 .2-.01.3v.06c.07.04.04.1.02.15l-.08.18v.03l.1.04c0 .08-.08.18.03.25l.02.04c-.1.14-.01.27.02.4.06.19 0 .36-.07.54.1.1.2.2.12.37-.03.07.03.14.13.13l.4-.06.24-.02.23-.04h.14c.07.03.06.02.16-.05.05-.03.13-.02.2-.02.03 0 .06.04.07.04.12-.04.22-.09.32-.1.1-.03.22-.06.31-.03.12.04.21-.05.3-.03.15.04.28-.06.42-.04a.5.5 0 0 0 .36-.02h.04c.34.12.69-.1 1.03.03.06-.1.16.03.25-.05.05-.04.16 0 .24 0 .1 0 .2-.05.27-.02.1.04.17 0 .26.03.2.04.4.05.6-.02.01-.01.04-.03.05-.02.13.05.25.02.37 0 .13-.01.26 0 .39.02.03 0 .08 0 .1.02.1.08.21.06.32.07.12 0 .23.07.35.1-.02.08-.15.08-.09.17l.1.2-.07.08.2.24.11-.06c.1.06-.02.12 0 .16.05.14-.1.03-.1.1.25.12.05.31.07.48-.2.04-.37.26-.63.12l-.14.15c0-.04-.03-.08-.05-.14a.61.61 0 0 1-.6.12c-.06-.02-.14.02-.25.05l.21.1c-.13.08-.22.03-.3-.02-.14-.08-.14-.08-.27.04-.05.04-.13.09-.17.07-.1-.05-.18.15-.26 0l-.3.05c-.11.02-.23.01-.36 0-.24 0-.5-.04-.74.09a.29.29 0 0 1-.25-.01c-.13-.08-.22-.03-.34.03-.05-.04-.06-.14-.18-.09a.34.34 0 0 1-.34-.05l-.03.08h-.04c-.09-.1-.16-.1-.3-.03-.16.1-.36.13-.55.17-.07.01-.17.08-.25-.02h-.06c-.27.05-.55.03-.83.08-.12.03-.25.09-.39.03-.05-.02-.12 0-.2.01l-.01.16c-.02.14 0 .29-.06.42-.04.11.05.11.09.16-.03.17-.1.33-.03.52.04.1.01.22.01.33 0 .33 0 .66.02 1 .02.18.01.36 0 .54-.03.19.03.38-.07.56.08.17 0 .33-.02.49 0 .07.04.14.04.2v.3c.05.04.14.07.25.06.23-.02.45 0 .68-.09.11-.04.26.01.39.02.08 0 .17.04.25-.02.03-.03.08-.02.13-.02.2.02.42 0 .63-.03.06-.02.14 0 .21.01-.02-.11.07-.07.12-.07h.37l.21-.01c.06-.01.12-.04.17-.03.12 0 .21.12.36.04.1-.06.25-.05.38-.06.06 0 .12.02.19.04.05.03.09.05.12-.04.02-.06.05-.05.1.06.27 0 .55.02.81-.04.28-.05.55.02.81-.03.2-.03.37-.02.56 0l.18.03c.07 0 .14-.04.2-.06h.05c.16.12.31.03.47 0l.08-.02c.15.01.3.02.44.05.19.03.38.04.57-.02.04 0 .08-.02.1 0 .19.06.37.01.56 0l.42.03c.24.02.48.02.72 0 .23-.01.47 0 .7.01.15.01.32-.04.46.07.13-.07.27-.03.4-.05.1 0 .18-.02.27.03.06.03.14.03.25.05l-.18.2.1.01c.04.07 0 .18.1.22.03 0 .04.08.05.13l-.02.18.28-.07-.03.2c-.09.05-.2.06-.28.19l.27-.05c-.08.12-.11.22-.27.2-.06 0-.12.1-.16.12-.07 0-.13-.02-.16 0-.1.1-.28-.09-.35.11-.1-.15-.25-.08-.38-.07-.04 0-.07.09-.11.14l-.24-.14c-.03.06-.05.12-.08.14-.11.04-.05-.1-.15-.12a28 28 0 0 0-.18.2c-.1 0-.24.05-.34-.1-.07.16-.23.12-.38.12l.05-.16-.25.12c.01-.02.03-.03.03-.05 0-.03 0-.06-.02-.08h-.05v.08l.04.05c-.05.03-.14-.07-.17.06 0 .02-.08.05-.12.04a1.1 1.1 0 0 0-.4.03h-.05c-.15-.11-.2-.12-.35-.05-.02 0-.03.02-.04.01-.18-.09-.32.08-.5.07l-.07-.17a.9.9 0 0 0-.23.08c-.12.06-.22.1-.31-.02-.1.02-.16.17-.28.01-.03-.04-.18-.02-.28-.02.02-.12.03-.23-.15-.29.04.08.06.13.1.18l-.2.08.01-.13c-.08.03-.17.15-.24-.03-.04.1-.1.17-.22.18-.06 0-.13.01-.14-.06 0-.03.05-.08.08-.12l.05-.04c-.14-.04-.24.02-.26.16 0 .06 0 .13-.02.2 0 .02-.05.04-.1.1v-.13l.03-.08c-.07 0-.13 0-.19-.03-.04-.01-.07-.05-.14-.1h-.19l-.22.24-.26-.09-.16-.03-.03-.08c0-.01-.01-.03-.03-.03-.07-.02-.37.13-.41.2l-.12.15-.04-.03.07-.1-.27-.07.05.15c-.17.08-.08-.11-.15-.14h-.21a.73.73 0 0 0-.06.06l-.31-.02-.01.04.14.04-.02.03c-.12.02-.2-.03-.23-.13l-.28-.04-.15.13-.16-.12c-.07.05.02.19-.11.2-.1.02-.17.02-.2-.08l-.26.07c-.04 0-.09.02-.1 0-.1-.1-.19-.06-.28.05a5.83 5.83 0 0 0-.05-.18c-.13-.04-.19.07-.28.15l-.14-.1-.49.08c-.02-.18.16-.08.21-.14-.14-.1-.15-.1-.35.05-.13-.16-.25-.06-.36.03-.2-.2-.3-.2-.5-.03a.4.4 0 0 1-.26.1c-.22-.01-.45-.02-.66-.08a.95.95 0 0 0-.44-.02l-.06-.16-.1.22c-.15-.05-.22-.17-.22-.38l-.1.02c-.14-.3-.2-.75.1-1-.07-.17-.26-.02-.37-.1.03-.15.14-.06.21-.1-.03-.18-.17-.03-.26-.09l-.01-.1c0-.06.04-.15-.08-.14l-.05-.57c0-.02.05-.04.08-.06-.07-.18-.17-.36-.06-.56a83.1 83.1 0 0 1-.09-.09l.15-.19-.03.17.19-.11-.17-.05c-.07-.05-.07-.14-.03-.17.06-.05.16-.05.26-.08l-.04-.22-.09.08-.05.1c-.14 0-.1-.12-.13-.18.04-.1.22 0 .22-.17l-.19.02.05-.27h-.12c.07-.1.1-.2 0-.3-.02-.03-.01-.1-.02-.15l-.03-.24c.11-.04.11-.15.07-.26.08-.04.18.05.2-.08.1-.06.1-.1.04-.23l-.03.24-.2-.02c-.06-.19.12-.36 0-.53.12-.14.25 0 .37-.05-.17-.12-.17-.13-.07-.36l-.1-.16c-.02.03-.05.06-.05.1 0 .12 0 .12-.08.22a3.1 3.1 0 0 0-.08-.08l.09-.09-.06-.23.28-.1c-.11-.03-.24-.04-.25-.08-.03-.1-.1-.2-.08-.34.03-.15.01-.3.03-.45l.06-.36v-.1c-.02-.1.02-.15.16-.16l-.16-.1c.01-.04.04-.1.02-.12-.08-.13-.04-.27-.02-.41.02-.17-.02-.35.07-.51.04-.08-.08-.09-.06-.18.04-.19.03-.38.09-.56 0-.03-.03-.07-.04-.1 0-.03-.02-.06-.01-.08.09-.13-.02-.24-.02-.38l.23-.08-.18-.02-.03-.05a.94.94 0 0 0 .04-.48c-.01-.07.06-.15.1-.25a12 12 0 0 1-.1-.04c.11-.11.07-.27.13-.4l.2-.03-.05-.22c-.1.04-.1.1-.07.15.03.08-.04.08-.08.1l-.08-.02.13-.34c-.1-.13-.08-.18.12-.23l-.2-.21c.06-.07.26.01.2-.18l-.16.01c.2-.15.27-.15.4-.01.1-.08.15-.17.1-.3-.14.03-.2-.1-.29-.17l.03.01Zm.05 8.04-.04.2h.15l-.07-.17-.05-.04c.1.01.05-.1.14-.13-.13 0-.14.07-.13.14Zm0-1.71v-.04c-.1-.01-.1 0-.1.12l.1-.09.02.2.19-.1-.22-.1Zm.12-5.58-.15.06c.09.03.11.18.21.06l-.06-.13.06-.18-.1.04c0 .05.03.1.04.15Zm-.12.84c-.22-.07-.24-.06-.26.12l.25-.13c.06 0 .13 0 .16-.07-.06-.02-.11 0-.15.08Zm.04 2.77c0-.05 0-.12-.12-.09l.13.08c.03.06-.07.19.1.2-.09-.13.1-.08.09-.2h-.2Zm.05 6.7v.17l.15-.13-.16-.03c.06-.06.09-.13.03-.2l-.14.04c.01.04 0 .09.03.13.01.02.06.02.09.03Zm-.06-2.37-.13.2c.12-.02.14.1.24.01l-.11-.21h.12l-.13-.19-.05.02.06.17Zm.05-2.11c-.09.03-.12-.16-.22-.04l.04.36c.14-.03.2-.1.19-.22l-.01-.1.21.25-.1-.33-.1.08h-.01Zm-.25.5.26.4.1-.23h.1l.01-.04-.1-.03.04-.03.1-.02-.17-.16-.34.12Zm.08-1.37c.05.27.13.35.3.31l-.2-.16c.14-.15.18-.27.11-.34-.01-.02-.05 0-.09 0l.04.16-.16.03Zm.06-2.84.13.35.16-.13-.13-.08v-.2l-.16.06Zm-.12 5.99c-.11-.1-.2-.09-.3-.02.05.11.1.22.13.33 0-.14 0-.26.17-.31Zm.1-7.66.11.07.31-.17-.34-.03-.08.13Zm.42 2.72c-.13-.13-.28-.1-.44-.08.07.13.07.13.13.13l.31-.05Zm-.17 7.41h-.31l.29.24.02-.24Zm-.08-1.85-.3.13.1.12c.07-.08.2-.08.2-.25Zm.34-9.6c-.2-.05-.27 0-.28.17l.28-.17Zm-.37 1.96c-.02.13-.09.25.08.3-.07-.08.15-.22-.08-.3Zm-.19 7.44.22.05-.06-.3-.16.25Zm.5-7.82c-.13-.17-.18-.18-.33-.07l.33.07Zm-.37 2.15c.08.17.2.08.3.09-.08-.1-.19-.09-.3-.09Zm.16-.28h-.24c.1.07.18.07.23 0Zm6.57 3.08c-.08.05-.19-.06-.27.04.12.08.2.04.27-.04Zm-6.76-2.28c.14.06.13-.02.15-.1-.1-.02-.13 0-.15.1Zm.03 7.52c.07.08.13.08.18 0h-.18Zm.12-4.05-.19.03c.08.09.15.08.19-.03Zm.19 1.9c0-.02.02-.03.03-.05-.03-.07-.07-.12-.2-.04l.16.09Zm-.64-.96c-.09.03-.1.1-.06.2l.06-.2Zm.02-3.56.05-.04c-.02-.07-.03-.14-.16-.13l.11.17Zm.32-.05a.6.6 0 0 1 .04-.03l-.09-.12-.05.05.1.1Zm-.42 3.22-.03.2c.11-.04.12-.08.03-.2Zm.48.18-.24.03c.09.03.17.08.24-.03Zm-.16 1.17c.03-.13-.02-.15-.14-.16l.14.16Zm.13.55-.04.04.1.09.04-.04a4.48 4.48 0 0 1-.1-.1Zm-.36-2.45c0-.02-.02-.03-.03-.05l-.1.07.02.03.1-.05Zm.02-5.53c.07-.03.1-.08.07-.16l-.07.16Zm.38 8.64.02.05c.06 0 .12-.02.13-.11l-.15.06Zm-.23-2.8c.03-.03.07-.06.06-.07 0-.02-.03-.04-.05-.06 0 0-.04.03-.04.05l.03.09Zm.23-5.23c.08.04.13.03.15-.07l-.15.07Zm.14 10.21h-.05v.1h.03l.02-.1Zm-.43-4.26h.05l.02-.12h-.04l-.03.12Zm-.15 2.35.01.06.13-.06-.01-.03c-.05 0-.1.02-.13.03Zm.1-4.83-.06-.06-.05.06.04.03.07-.03Zm.45-3.78c.02-.05.04-.07.04-.1 0-.02-.03-.05-.04-.05-.03 0-.05.03-.06.05l.06.1Zm.1 8.22.02-.04-.11-.04-.02.05.11.03Zm-.22-.69a.5.5 0 0 0-.02.05c.03.04.05.1.15.02l-.13-.07Zm-.35-6.08h-.05v.1h.03l.02-.1Zm-.06-.89.01.04.1-.02v-.04l-.1.02Zm-.05 1.43v.03l.1.01v-.05h-.1Zm9.23 8.12-.05.04c0 .01.02.04.03.03.01 0 .03 0 .04-.02l-.02-.05Zm-8.62-7.43-.05-.04c-.02 0-.03.02-.05.03h.1Zm.04-2.5.03-.04-.1-.04-.02.03.1.05Zm-.63 3.95h.03v-.1h-.04l.01.1Zm.08-.88a.54.54 0 0 0 .03-.04l-.09-.04-.01.03.07.05ZM66 8.55v-.1c.16-.12.32.01.48 0 .03 0 .07.05.1.08l.17.22.15.16.02.06c.01.13.06.26.07.38.03.28.11.55.12.82 0 .16.08.32.03.49l.02.07.05.28.02.52.08 1.23.04 1c0 .05.02.08.01.12-.07.23.01.47 0 .7l-.03.66-.03.38c0 .06-.05.11-.07.17.1.17.1.38.1.6.1.03.19.02.27-.04.07-.06.14-.06.18 0 .18-.08.33-.17.5-.22.25-.08.53-.14.8-.22a65.72 65.72 0 0 0 2.05-.69c.18-.06.35-.15.53-.22l.64-.23 1.15-.47.85-.36.14-.04.36-.16c.18-.09.35-.19.53-.27.14-.07.29-.12.37-.26a.14.14 0 0 1 .08-.05c.1-.03.04-.09.03-.14h-.01c.12-.03.13-.05.04-.13-.03-.04-.08-.07-.15-.13l.24-.02-.18-.14.02-.48c0-.09 0-.18.15-.17-.06-.1-.13-.17-.03-.25.02-.01.01-.06.01-.1v-.23c.03-.08.1-.15 0-.22v-.06c.12-.35.12-.7.2-1.06l.14-.57c.01-.03.07-.05.1-.08.04-.05.13-.07.04-.15v-.06c.05-.12.3-.23.43-.25.28-.04.39.12.47.35.05.16.16.3.23.45.15.35.16.73.2 1.11l.08 1.08c.02.27.02.54.05.8l.04.7c0 .1-.04.2-.03.3 0 .09.06.17.06.26v.5l-.01.58c0 .17 0 .33.03.49.02.11 0 .2-.08.24l.07.18v.54c0 .1.02.22-.05.33-.04.07.02.2.02.3-.01.24-.04.48-.03.73 0 .1-.02.2-.04.31-.02.2 0 .4 0 .6 0 .1-.02.19-.03.28v.2c.01.1.06.2 0 .31-.02.03 0 .07 0 .1 0 .05.02.1.01.13 0 .24-.03.48-.04.72 0 .42-.06.84 0 1.26.03.17.02.34 0 .5-.01.29-.05.56-.07.84-.02.22-.01.45-.04.67-.02.11-.1.22-.15.32-.02.03-.09.05-.14.04l-.34-.03a.52.52 0 0 1-.38-.17c-.12.07-.23.15-.35.2-.18.07-.26.02-.35-.15-.06-.13-.12-.25-.28-.28-.06 0-.04-.13-.14-.09 0-.02-.02-.06-.01-.07l.11-.08c-.04-.12-.11 0-.17-.03l-.02-.05-.01-.4v-.8l-.01-.75c0-.3.04-.59.05-.88.01-.38 0-.77.1-1.15.03-.1 0-.2-.02-.32 0-.11-.11-.21 0-.34.04-.04 0-.13 0-.2 0-.1.02-.17.15-.18-.22-.1-.02-.32-.16-.4.05-.11.09-.2.15-.29.07-.08-.02-.17.04-.25l-.07-.04-.02.1-.13-.12c.05-.06.09-.14.15-.15.15-.03.06-.15.1-.23.02-.05-.03-.15-.14-.17 0 0-.02 0-.03-.02l.13-.31c-.12-.01-.13-.14-.15-.23-.03-.12-.04-.2-.19-.13-.01 0-.04 0-.06-.02-.15-.09-.32-.07-.5-.1l.1.14c-.14.1-.31.12-.48.14-.1.02-.2.11-.32.09l-.04.13c-.13.05-.27.03-.37.17-.05.07-.17.09-.26.12-.12.06-.23.14-.39.13-.12-.01-.25.08-.38.13h-.04c-.03.02-.05.06-.08.07-.02.01-.05 0-.07-.02l-.09-.1c-.03.23-.17.26-.32.3-.16.04-.34.05-.47.14-.12.08-.27.03-.37.14 0 .02-.07-.01-.1-.03l-.1-.07-.03.04.08.04-.01.04a.58.58 0 0 1-.48.16c-.17-.02-.26.08-.37.13-.08.04-.13.14-.2 0l-.1.03c.02.08-.03.09-.1.1-.08 0-.17.04-.25.04a.61.61 0 0 0-.37.1l-.03.03a.5.5 0 0 0-.38.11c-.1.08-.25.02-.36.11 0 .01-.06-.05-.08-.04-.11.03-.22.06-.31.12a.37.37 0 0 1-.25.06c-.13 0-.26.02-.4.04-.09 0-.14.07-.15.15l-.03.37-.02.8c0 .5 0 1-.02 1.5s-.06.99-.06 1.48c0 .15-.1.3 0 .46-.08.12.01.25-.03.37-.02.04-.03.1-.01.12.08.12-.03.13-.1.16.14.13.13.13.05.3-.02.04 0 .1 0 .15-.2.05-.41.12-.62.14a.77.77 0 0 1-.4-.12c-.23-.11-.43-.34-.73-.29a.4.4 0 0 1-.2-.02c-.1-.04-.18-.1-.15-.21l-.13-.02-.02-.04a.37.37 0 0 0-.03-.26.56.56 0 0 1-.01-.34c.05-.24.1-.46-.02-.7-.02-.02 0-.06 0-.1 0-.21.02-.43 0-.64 0-.16.02-.32.01-.47-.02-.27.07-.53 0-.79-.01-.1-.03-.19.04-.27-.09-.25.02-.5 0-.74v-.89l.03-.27v-.06c-.05-.22 0-.44.03-.66l-.03-.1c0-.08-.04-.16-.02-.23.05-.31.07-.62.02-.93-.01-.06 0-.11.01-.17.01-.04.04-.08.03-.1-.09-.26 0-.51 0-.77.01-.11-.04-.26.07-.37.01 0 .02-.03.01-.04-.1-.32.03-.65 0-.97-.02-.27.01-.53.03-.8.01-.15.02-.15.15-.24l-.17-.03c.02-.12.1-.22.05-.35-.02-.07.07-.19.1-.29.03-.07.1-.15-.01-.22-.03-.02-.04-.15 0-.18.17-.17.05-.4.1-.59.03-.1-.06-.22.06-.31V11c-.12-.14-.03-.24.07-.34.03-.03.02-.12 0-.16-.1-.14-.05-.23.06-.31l.04-.06-.13-.2.23-.04-.14-.12c-.03-.09.11-.17.03-.3l.2-.02-.03-.18-.05.01.08.17c-.11-.03-.16-.1-.17-.22 0-.14.13-.12.21-.2l-.15-.06.11-.09-.1-.17.16-.12v-.01l.15.19-.14.2c.12 0 .22 0 .2-.1-.01-.12.06-.17.12-.25l.01-.01a.2.2 0 0 0 .1-.13l-.1.06.01.02Zm-.24 1 .07-.01c0-.1 0-.2-.1-.31 0 .12.02.22.03.32Zm.1-.5v-.02l-.1.07.02.03.09-.07Zm1.7 7.65a.33.33 0 0 1-.03-.03l-.1.06.02.04.1-.07Zm.15-.1c.06.09.1.08.16 0h-.16Zm8.91-7.32-.06-.05c0 .01-.03.03-.03.05l.03.04c.02 0 .04-.02.06-.04Zm-.9 6.78c-.01.01-.03.03-.03.05l.02.02.03-.04-.02-.03Zm.22-3.83-.04-.01-.02.13h.04l.02-.12Zm45.4-3.12c.14.04.3-.04.43.04.15-.13.29.05.45.04l.31-.01c.17 0 .34.01.5-.04.35-.12.72-.01 1.07-.09a.51.51 0 0 1 .22 0c.16.04.31 0 .47-.01.31-.03.63-.05.95-.05.31.01.62.06.93-.02.13-.04.3-.01.42.03.1.04.12-.03.17-.06.09.03.18.13.28.02.01-.02.07 0 .1 0 .29.03.57.02.85.03.22.01.44.04.64.01.25-.03.5.05.74-.04.34.05.67-.05 1.01.02.26.06.53.09.8.07.38-.02.75.05 1.13.08.16.02.33-.04.48.05.07-.12.13.03.21 0 .08-.02.17 0 .26 0h.08c.19.06.37.07.57.05.16-.01.37.01.48.19.02.02 0 .07.02.08.08.03-.13.14.05.15.03 0 .05.11.14.1l-.12.15.28.33-.27-.05-.02.04.07.04.09.08-.35.08v.04l.2.05c-.24.09-.5.01-.67.24l.03-.12-.27-.05.02.1-.28.07.13-.14h-.41c-.07 0-.13.06-.2.07-.06 0-.17-.04-.2-.01-.07.08-.14.03-.21.02-.07-.07-.14-.09-.22 0h.22c-.16.13-.19.13-.42-.05 0 .1.02.22-.14.14-.19.09-.38-.04-.58.03-.07.03-.19-.04-.3-.07a.7.7 0 0 1-.03.05c-.1.02-.2.01-.27.05-.16.1-.29.05-.4-.09l-.11.12-.3-.14-.06.12a7.48 7.48 0 0 1-.1-.15c-.07.11-.16.17-.29.14-.05 0-.1.04-.18.07l-.05-.13c-.03-.05-.08-.09-.15-.05l-.3.14a9.42 9.42 0 0 1-.12-.1l-.15.1-.09-.17c-.13.14-.3.1-.48.16l.08-.2-.18.12c-.05-.08-.11-.16-.22-.07l.04.08-.24.01h-.23l-.33-.02h-.65l-.43-.02c-.03 0-.07-.02-.09 0-.09.06-.19.03-.29.04l-.94.07-.67.06c-.16 0-.27-.1-.4-.17a.14.14 0 0 0-.12-.01l.1.11c-.12.04-.22.09-.33.11-.1.03-.17.08-.15.2l.08.6.08.64c0 .04 0 .08-.02.12 0 .03-.02.07-.01.1.08.38.12.76.12 1.15 0 .23.02.46.04.69 0 .08.02.14-.04.2-.01.01-.02.03-.01.04l.07.82h.33c.33-.02.68 0 1-.07.21-.03.4.02.6-.01.2-.03.4-.02.59 0 .18 0 .38-.07.56.02.21-.13.44.02.67-.05.17-.04.36.01.55.03.04 0 .07.06.12.1.04-.07.07-.14.18-.08.04.02.13.07.19-.04.01-.02.1-.01.14 0 .24.06.47.08.71.03h.02c.24.12.5.06.75.06.09 0 .25.18.26.28l.02.15h.16l-.07.13.1.07c.12.06.15.11.1.23a.63.63 0 0 1-.32.4c-.04.02-.1.05-.1.08-.08.15-.2.15-.34.16.03-.13-.1-.14-.13-.18-.13-.06-.22.2-.31-.03a.74.74 0 0 1-.65.26l.14-.13-.28.02-.07.15c-.06.04-.06-.12-.13-.05-.06.06-.08-.01-.12-.02-.05-.01-.11 0-.18.01l-.08-.12-.08.05c-.07.1.05.11.08.19h-.22c.01-.05.04-.1.03-.13-.03-.07-.08-.05-.13-.01l-.13.08-.2.1-.04-.21-.23.2-.16-.09-.1.1-.09-.1-.25.12-.06-.08c-.16-.02-.3.27-.47.04l-.2.1.06-.15-.17.02-.15-.07c-.15.19-.15.22-.33.09l-.07.07c0-.03-.02-.05-.03-.08l-.19.08c-.05.02-.09.02-.14-.04-.1-.1-.18-.09-.28.02l-.22-.1c-.07-.03-.12-.03-.18.03-.05.06-.13.06-.2 0-.06-.06-.15-.08-.24-.1.03.08.04.13-.02.2-.04.03-.04.11-.05.18l-.01.24a.46.46 0 0 0 .03.26c.05.12.02.28.01.42v.54c-.02.26.09.53-.06.78l.02.08c0 .04.04.1.03.14a.4.4 0 0 0 0 .28c.01.05-.03.12-.06.2.1.1.07.24.05.38-.01.12-.04.23-.06.35v.08c.1.36 0 .72.02 1.08 0 .05-.04.1-.06.18.07.02.14.06.2.05l.72-.08h.27c.36-.02.71-.02 1.07-.05.22-.02.43-.04.65-.01l.15-.03.13-.03c.13-.03.24.09.39.01.1-.05.26-.03.38 0 .16.04.3.04.46-.02.1-.02.22-.04.3 0 .12.06.27-.1.38.04a.4.4 0 0 1 .39.03c.02 0 .1-.09.12-.07.22.1.44-.04.65-.01.02 0 .06-.02.06 0 .1.11.23-.01.35.02.11.04.25 0 .38 0l.78-.07.88-.1h.41l.96-.01c.2 0 .41-.06.62-.07.27-.01.53-.03.79.09.23.1.31.43.16.62l-.08.11c.07.07.23.1.12.25v.02c.04.05.12.11.05.18a.57.57 0 0 1-.2.14l-.48.15c-.09.02-.2.07-.28-.04-.02-.02-.08 0-.13 0l.03.1c-.29 0-.57-.06-.88.06l.1.04c-.02.08-.17.05-.28-.06-.16.04-.28.22-.51.15l.16-.11-.04-.03c-.13.05-.26.02-.39 0-.04 0-.08 0-.12.02l-.12.06c-.18.1-.36.15-.55-.03l-.05.17-.19-.16-.1.16-.08-.18c-.06 0-.13-.01-.18.02-.1.05-.08-.08-.16-.08l-.02.29c-.07-.14-.2-.2-.29-.18-.16.04-.33-.07-.48.1l-.04-.2-.11.16-.13-.08-.12.1-.1-.15-.22.27-.04-.02.02-.09-.32-.06-.01.03.12.1-.01.02c-.07-.03-.15-.04-.2-.08-.11-.08-.27-.06-.33 0-.1.1-.2.07-.32.07a1 1 0 0 0-.3 0c-.16 0-.3.11-.48.06-.04 0-.1.06-.18.07 0-.02.02-.03.04-.06l-.43-.03.25.16a.83.83 0 0 0-.43.02c-.08.03-.15-.02-.22-.13-.05.01-.13 0-.16.04-.16.14-.3.07-.46 0-.11-.04-.22-.09-.28.08 0 .02-.06.04-.1.03l-.31-.02c-.05 0-.1.04-.14.04-.04 0-.1 0-.11-.03-.02-.02 0-.07 0-.12-.1-.04-.14.08-.21.14-.13.02-.2-.06-.29-.2l-.04.18c-.08-.03-.21.06-.24-.11l-.24.09c-.04-.1-.16.06-.2-.05l-.2.04c-.09-.05-.2-.12-.35-.02-.08.05-.2.02-.28-.1-.1.05-.19.1-.29.13a.73.73 0 0 1-.43 0c-.18-.03-.25-.14-.32-.27l-.11-.18c-.05-.06.14-.1.02-.17l-.2-.11v-.12c.02-.08-.01-.13-.08-.17-.18-.1-.19-.16-.14-.36.03-.09.05-.19-.01-.28a.33.33 0 0 1-.03-.17c0-.18.02-.36 0-.54-.03-.26.03-.53-.02-.8l-.13-1v-.16c.01-.1.05-.2-.05-.27-.03-.04-.04-.12-.03-.17.06-.24-.06-.47-.03-.7.02-.1-.06-.2.03-.28v-.03c-.15-.11 0-.27-.07-.4-.02-.06-.02-.13-.03-.22l.12-.08-.01-.03c-.13-.07-.06-.18-.07-.27 0-.04.04-.1.03-.1-.12-.11 0-.27-.1-.38v-.02c.06-.25-.01-.5-.02-.74l.01-.11.08-.25v-.22l-.1.04c.03-.15.12-.3.08-.4-.05-.13-.04-.26-.04-.38 0-.07.04-.14.08-.23-.13-.11 0-.26-.03-.4-.01-.06.02-.14 0-.2a2.4 2.4 0 0 1 0-.6.8.8 0 0 0-.02-.27.42.42 0 0 1 .1-.33c-.15-.08-.02-.25-.1-.34l.1-.1c.13.07 0 .17.04.28l.2-.15-.1-.07.17-.14-.1-.2h-.14l.01.06.14-.06c-.03.16-.17.12-.3.16v-.38c0-.02-.03-.05-.02-.06.15-.1.02-.19-.02-.28-.06-.14.03-.24.1-.35l-.13-.15c.27-.07.08-.24.13-.37l-.11.02-.02-.03-.05-.42.01-.23c.03-.13.08-.26.06-.4 0-.07-.01-.19.11-.21v-.03l-.02-.03c0-.12.11-.13.22-.18l.11.22.3-.22-.29.05V9.1v.02Zm-.16 1.44v.05l.21.05.01-.06-.22-.04Zm-.06 1.08-.01.05.17.02.02-.05-.17-.02Zm7.86 5.21.17.08c-.02-.08-.07-.1-.17-.08Zm2.03-6.12v.05l.2-.04v-.03l-.2.02Zm-7.65-.07-.05.08c.02.02.04.04.06.04l.04-.04c0-.02-.03-.04-.05-.08Zm-2.22 2.36c.08.03.11 0 .11-.07l-.1.07Zm.06 4.72-.04.04.1.07.02-.04-.08-.07Zm8.58-1.57c0-.02.02-.03.04-.05l-.12-.09-.02.03.1.1Zm-8.53-6.42.02.06.1-.02v-.06l-.11.02Zm-.12 1.05v.05l.09-.02v-.02h-.09Zm-62.4 13.08c-.07.01-.12.16-.2.02l-.06.02-.2.06c-.18.02-.37.1-.57.2-.07.05-.15.06-.24.08l-.04-.14c-.28.12-.32.11-.5-.09-.07.02-.1.16-.2.1-.03-.02-.01-.1-.02-.16l-.14.06c-.05-.17-.16-.13-.25-.09l-.54-.24a3.4 3.4 0 0 1-.78-.47c-.07-.06-.16-.09-.25-.13-.12-.05-.17-.2-.32-.22-.09-.02-.1-.14-.2-.2-.16-.08-.3-.24-.44-.37l-.75-.7a3.32 3.32 0 0 1-.65-.7c-.08-.13-.14-.25-.02-.43l-.19.1c-.12-.12-.2-.25-.16-.44a.65.65 0 0 0-.02-.27l-.11-.38c.15.04.22-.02.26-.13 0-.04-.02-.1-.04-.12-.07-.04-.09.03-.1.08l-.02.1c-.04-.06-.09-.1-.08-.14l.08-.46c.03-.15.23-.29.38-.26l.1.03c.08-.15.21-.11.33-.11 0-.04-.02-.06-.03-.1.08.05.2-.01.22.12h.18l-.07.12.02.03c.15.06.23.19.3.32.05.07.1.15.17.19.21.1.3.3.37.5.08.2.19.41.34.56.14.14.23.3.34.44.1.13.17.27.35.33.08.03.13.15.2.23.03.04.07.1.1.1.17-.02.27.14.42.15 0 .04-.03.08-.02.1.02.02.09.05.1.04.11-.15.15-.01.21.05l.05.04c.2-.1.36.07.54.12.02 0 .02.06.02.1l.12-.13c.15.1.3.1.48.06.21-.04.43-.04.65-.07.35-.03.66-.2 1-.3.32-.09.54-.34.81-.51.19-.11.31-.33.47-.49.33-.33.5-.74.67-1.17.14-.36.24-.73.3-1.1.06-.3.02-.6-.17-.87-.05-.06-.09-.1-.06-.2l-.04-.1.02-.1c-.03-.02-.12-.04-.13-.07-.08-.24-.3-.22-.5-.3l.17.23c-.07.01-.12.04-.16.02-.15-.05-.19-.04-.26.1l-.2-.05.1-.12c-.2.01-.3.15-.44.22-.08-.1.08-.09.08-.15-.11-.04-.28-.01-.52.09l-.13-.06c-.06.13-.25.17-.2.35-.06.01-.13 0-.17.03-.1.08-.18.04-.26-.04l-.26.14.05.13c-.07 0-.14-.02-.2-.03l-.01-.06-.03-.11-.1.05-.44.28c-.03.02-.07.01-.1.03l-.23.08c-.02 0-.04.03-.05.03-.24-.06-.49.08-.72-.02a.2.2 0 0 0-.11-.01c-.13.01-.24.06-.37-.05-.11-.1-.3-.12-.46-.12-.22 0-.38-.15-.6-.16-.08 0-.16-.13-.24-.2-.13-.1-.23-.24-.4-.3-.06-.01-.1-.07-.15-.12l-.66-.6h.13c0-.1-.07-.15-.2-.15-.02-.1-.08-.2-.1-.32-.02-.1-.06-.2-.2-.2l.09-.12-.03-.03c-.09 0-.1-.05-.12-.12l-.1-.51c-.05-.17-.02-.36 0-.54 0-.11.03-.22.04-.33.02-.19.1-.37.08-.57-.02-.13.06-.27.1-.4.05-.12.11-.23.11-.36 0-.07.1-.14.1-.21.03-.19.17-.33.17-.53 0-.1.05-.2.11-.27.12-.14.15-.32.25-.47.13-.2.27-.38.42-.57.06-.08.11-.17.2-.22.12-.07.2-.17.27-.29.03-.05.05-.15.16-.1.01 0 .06-.05.08-.1a.46.46 0 0 1 .36-.27.43.43 0 0 0 .21-.11c.15-.13.32-.2.5-.26a.26.26 0 0 0 .1-.07c.1-.12.27-.12.38-.12.2 0 .36-.06.52-.14a.76.76 0 0 1 .23-.05c.13-.02.24-.12.4-.13v.1c.1.07.12-.05.18-.06.07-.01.19.06.2.04.1-.14.28-.04.38-.14.12.07.23-.01.34-.02.12-.01.24-.04.36-.03.15 0 .3.04.46.06.02 0 .06.02.08 0 .14-.06.29 0 .43-.02.14 0 .29.1.43.14.05.02.1 0 .15.03.09.04.17.1.26.15.05.04.1.08.16.1.08.04.22.04.16.2v.02c.2.1.27.3.4.44.16.19.38.33.4.61l.05.08.2.54c.02.05.04.1.03.15-.03.14.02.28.01.42l-.03.18c0 .02-.03.04-.02.05.05.22.03.44-.02.66v.16a.92.92 0 0 1-.77.33c-.12 0-.23-.02-.32-.15-.04-.06-.15-.07-.22-.1-.05-.03-.12-.04-.15-.08a1.83 1.83 0 0 1-.36-.93c-.05-.37-.16-.74-.54-.97l-.1.16c-.04-.18-.16-.15-.27-.17-.14-.03-.2.07-.26.18l-.13-.11-.43.25-.15-.22c-.09.19-.2.3-.36.35.1-.08.03-.14 0-.18l-.28-.02.1.13c.06.04.12.05.19.07-.04.02-.07.05-.1.05-.06-.01-.1-.05-.12-.06l-.32.13-.02-.04.16-.09h-.23c-.03.08-.03.18-.14.2-.02 0-.03.07-.05.12l.01-.01-.3.3-.03-.01c-.1.06-.18.14-.28.17-.08.04-.12.06-.12.15 0 .07-.04.13-.1.18l-.03-.1-.2.13.05.07-.16.11c-.04.05-.14.07-.08.17v.02c-.2.05-.08.27-.18.4l-.16-.05c.04.08.1.15.02.23-.06.06-.05.17-.1.23-.05.07-.13.11-.2.17.06.08.06.17 0 .28-.08.15-.12.3-.17.46a.29.29 0 0 0 .01.2c.04.08-.13.1-.03.2.03.03-.03.13-.03.2 0 .08.04.15.06.23.14.33.38.36.65.34.07 0 .14.03.2.02.13-.03.25 0 .38-.03.26-.08.51-.23.82-.18l.08-.15c.22-.02.47.05.64-.16l.14.07a7.33 7.33 0 0 0-.05-.18c.13.16.3.05.43.12.03-.05-.01-.16.1-.1.03.01.1-.07.14-.1.05-.02.12-.02.17-.03l.2-.02-.04-.06.03-.02c.21.06.4 0 .6-.06.03 0 .08-.02.1 0 .07.05.14 0 .2-.01.22-.02.44-.06.66-.05.11 0 .23.05.34.1l.22.05c.07.01.28.16.36.21.03.03.1.03.15.05l-.1.13.24-.02c.14.12.3.22.24.48l.1-.08.34.32-.07.08c.04.03.08.09.11.08.1-.01.13.05.17.1.2.29.34.6.45.92.04.12.15.22.1.37-.02.03.06.07.07.12.08.32.2.63.2.98 0 .18-.03.37-.04.55-.02.29-.11.56-.2.83l-.1.37-.16.37-.23.4c-.04.08-.05.18-.07.27v.04l-.15.12c.06.05.02.12 0 .17-.02.06-.06.11-.1.17-.03.05-.04.12-.08.16-.06.06-.14.1-.2.15a1.87 1.87 0 0 0-.06-.1h-.03v.18c-.2.02-.2.2-.29.3-.09.11-.16.24-.24.37-.13-.05-.22.03-.3.16-.01.04-.07.05-.11.07-.03.02-.07.03-.07.06-.02.09-.07.14-.17.12a.1.1 0 0 0-.07.03l-.27.24c-.07-.1-.15-.2-.3-.1-.04.03-.12 0-.22 0l.19.16c-.12.08-.22.02-.3-.04-.05.03-.1.08-.12.07-.24-.1-.4.15-.62.16l-.03.1c-.08-.03-.15-.02-.19.05l.19-.05.05.06c-.02.02-.05.06-.08.06-.1.02-.21.02-.31.02l-.09-.06v.11-.01Zm-.64-13.16-.05.04c0 .03.02.05.04.06l.04-.03-.03-.07Zm.45 6.42c.02-.04.04-.06.03-.07a.09.09 0 0 0-.05-.04c-.01 0-.05.02-.04.03 0 .02.02.04.06.08Zm116.29-6.66h-.19l.06.11-.18-.02.02-.11-.04-.02-.28.43c.05.09.18.07.15.2-.02.08.05.17.05.25 0 .08-.04.16-.06.25l.13.1c-.03.1-.07.21.02.33.03.04.03.16-.01.21-.07.1.1.07.04.13-.06.04-.06.06 0 .11.03.02.02.1.03.15.08.3.06.6.1.9.06.39.17.78.16 1.18v.46c0 .34 0 .69.07 1.03-.12.11.05.22 0 .34-.03.11.04.24.03.36l-.03.63.01.18c.04.2.12.39-.03.57.14.07-.01.18.03.26.1.16.03.34.04.5.02.21 0 .43 0 .64l-.2.05.2.08-.06.16c0 .03-.03.08-.02.1.05.08.02.15-.01.22-.02.05-.03.1-.02.15 0 .16 0 .33.1.48 0 .02.02.05.01.06-.06.27.01.54-.02.8-.02.1 0 .2.14.19.03 0 .06.02.08.03.19.05.22.04.4-.06.13.16.28 0 .42 0 .05 0 .1-.01.15.01.12.05.24.1.38.05a.53.53 0 0 1 .28 0c.23.06.46 0 .7 0 .08 0 .17-.04.26.04.03.02.13-.04.22-.08l.06.05c.07.08.13.1.24.05.2-.09.42-.07.63-.03.02 0 .05.02.06.01.15-.1.28-.05.42.03h.09c.12 0 .23-.03.35.04.08.05.21-.04.3.06.12-.08.2.03.3.06a.5.5 0 0 0 .42-.03l.2.3.22.23a6.9 6.9 0 0 0-.1.1c.06.08.21.02.21.16l.15.02-.03.37c-.15.01-.12.14-.11.25-.14.06-.26.14-.4.18-.12.03-.27.06-.37 0-.19-.09-.31.03-.44.1-.16.07-.26.02-.4-.05l-.05.1h-.47l-.09-.08c-.15.05-.29.16-.46.13-.02 0-.04.05-.07.07l-.08.06-.03-.17-.05.01c-.1.19-.25.23-.44.21-.05 0-.1-.02-.13 0-.19.11-.3.02-.38-.15-.06.05-.1.1-.14.12-.15.04-.1-.2-.24-.15-.02 0-.04.02-.07.05l.16.12c-.63 0-1.21-.02-1.79-.03v-.02c.04-.02.1-.03.13-.06a.18.18 0 0 0 .05-.12c0-.02-.06-.04-.12-.07l.02.14c-.27.02-.53-.17-.8-.03l.07.1-.03.03c-.05 0-.14-.03-.16 0-.12.13-.26.03-.35 0-.14-.06-.22-.03-.33.04.02-.03.02-.07.05-.09l.13-.07c-.17-.03-.3.01-.35.13l-.22-.02c-.04-.14-.07-.16-.2-.15-.12.02-.2-.03-.29-.1-.08.1-.2.08-.3.06-.03 0-.05-.07-.09-.11l-.18.1-.02-.05c-.15-.03-.3-.06-.45-.05-.1 0-.2.08-.3.11-.11.03-.23.02-.32-.09l-.1.17-.11-.05a.53.53 0 0 0-.16-.01c-.05 0-.09.03-.11.04l-.26-.16-.07.1h-.04c-.05 0-.13-.04-.16-.02-.2.11-.33 0-.47-.1-.16.15-.37.1-.55.17-.02-.03-.04-.07-.06-.08-.09 0-.17 0-.26.03l.15.06-.21.07-.05-.08c-.2-.02-.4-.03-.58-.06-.08-.01-.15-.07-.23-.1-.15-.03-.31-.05-.45-.1a.72.72 0 0 1-.38-.32c-.07-.14-.23-.24-.19-.44.04-.16.04-.32.05-.5l.89-.13c.25-.04.51-.04.77 0 .02 0 .06.02.07.01.1-.18.27-.12.4-.1.16.02.3 0 .47-.02.1-.02.25-.11.37.03.02.03.13 0 .18-.02a.8.8 0 0 1 .46-.05c.1.01.2-.06.29.02.12-.08.17.05.25.1l.08-.12c.06.02.11.06.18.1l.07-.1c.06 0 .12.1.19 0l.09.03c.08 0 .17.02.24-.01.05-.02.08 0 .11 0 .21-.02.42-.06.6-.16.03 0 .06-.06.05-.09-.03-.11-.07-.23-.05-.36l-.07-.06-.03-.34c.01-.17 0-.35-.02-.52-.02-.1 0-.2 0-.33h-.03l-.06-.48v-.12c0-.08 0-.16-.02-.23-.05-.16-.07-.32.01-.42l-.03-.23-.09-.3c-.02-.1-.04-.2.03-.3.03-.03.02-.09.02-.14l-.03-.1c0-.14-.06-.3.1-.39.02 0 0-.04 0-.07l.1-.15a.47.47 0 0 1-.02-.03c-.05.04-.1.07-.13.12-.02.05 0 .08.07.06l-.15.05-.03-.2c0-.04.03-.09.02-.13-.04-.1.03-.14.11-.17-.16-.05-.22-.14-.2-.32v-.18c0-.03-.02-.09 0-.1.13-.11.02-.23 0-.34-.01-.12-.11-.23-.01-.36v-.02c-.14-.14-.03-.23.1-.33l-.2-.05c.02-.02.04-.04.04-.06 0-.08.02-.16 0-.24a.74.74 0 0 1 .08-.54 4.5 4.5 0 0 1-.12-.09c.02-.06.06-.12.07-.2 0-.05-.03-.12-.04-.19l.14-.02-.2-.18c.03-.16.31-.12.28-.33l-.26.18c0-.13-.1-.22 0-.32v-.06c-.06-.15-.02-.28.07-.41.04-.06.04-.13.02-.2a.94.94 0 0 1-.07-.4c.02-.12.1-.24.17-.38l-.17-.1c.1-.16.04-.34.08-.51.03-.17.02-.34.03-.54l-.09-.04v-.26l-.15.05-.02-.14-.28.02-.01.04c.08.05.15.1.24.14-.11.13-.18-.02-.26 0l-.27.03-.04-.19h-.03a.53.53 0 0 1-.27.02 2.71 2.71 0 0 0-.77-.03c-.23.04-.43-.01-.61-.08-.06.05-.1.1-.16.11-.05.02-.11 0-.16 0h-.11c-.02-.08-.06-.11-.13-.11l.13.1-.04.04c-.1-.03-.2-.11-.3-.02l-.2-.16c.02 0 .02-.01.03-.02l-.23-.03c-.01.08-.05.18-.19.16l.03-.1-.02-.03c-.12.01-.23-.04-.34-.08a.26.26 0 0 0-.12-.02c-.1 0-.21.05-.31.04-.1-.02-.17-.1-.3-.1-.1.02-.2-.08-.34-.14l.08-.04c-.15-.24-.13-.5-.1-.78 0-.13.09-.18.24-.19.25-.01.5-.07.75-.08.28 0 .54-.18.82-.07.1-.1.25.06.33-.08l.08.01c.2.03.39.01.58-.02.15-.02.3-.02.47.02.15.03.32-.02.48-.06a.3.3 0 0 1 .16 0c.1.03.22.02.34.02.14 0 .27.05.42 0 .19-.05.39-.01.58.03.12.02.24.02.37.01.17 0 .34-.06.51-.04.3.04.58.02.87-.02h.09c.02.01.04.04.06.04.1 0 .22-.03.32 0 .12.03.2.07.32 0 .08-.05.22 0 .32.02.08.02.15.06.24 0 .03-.01.1.04.18.07.21-.11.44-.04.67.08.09-.11.19-.12.33-.06.06.03.16 0 .25 0 .15-.02.31-.08.47.02.03.02.1 0 .14 0 .16 0 .3-.02.47.02.16.03.34.02.52 0 .11-.02.24.08.35-.03.12.14.26.03.39.05.1.01.2.08.31.12l.05-.07h.04l.12.05c.2.02.42.02.63.05.08.01.16.08.25.13l-.06.11c.02.12.2-.03.18.14l-.1.06-.07.28.2-.15c.02.05.04.13.08.17.05.04.13.05.2.08l-.05.18-.25.07v.04l.16-.02v.1c-.16.02-.18.16-.27.25v-.13l-.36.05v.04l.14.1c-.12 0-.22.02-.33.03l.03-.13-.12.03-.03-.07-.02-.01c-.17.12-.35.01-.53.04l-.34-.01c-.1 0-.19.02-.28.03l-.28.01c0 .03-.03.08-.05.13-.25-.06-.5.05-.77.03-.25-.02-.5 0-.78 0l.1-.16c-.06 0-.12 0-.17.02l-.13.1-.17-.16v.17c-.13 0-.07-.12-.14-.17l-.15.12-.07-.12c-.06.06-.14.1-.23 0l-.04.15c-.03-.03-.08-.05-.1-.09-.04-.05-.07-.08-.14-.06.02.17.14.14.24.15-.08.02-.17.07-.24.06a.55.55 0 0 0-.39.02l-.29-.12v.01c-.02-.07-.05-.15-.13-.05v-.02Zm-1.9 6.92c.1-.03.12-.1.08-.19 0 .1 0 .12-.07.2.01.06-.02.16.14.14l-.14-.15Zm.1-1.67a.3.3 0 0 0-.23.04c-.08.05-.18.04-.23-.03l-.04-.12c-.07.2 0 .34.05.49.03-.09.03-.19.09-.23.04-.03.14 0 .22 0v.15c.15-.08.08-.21.13-.3Zm.27 4.18-.18-.07c-.13.17.12.2.1.33l.08-.26Zm5.1 4.05h-.31c.1.14.18.06.3 0Zm2.35-1.4c.07-.07.1-.14 0-.23v.23Zm-7.49-1 .08-.02-.08-.17h-.04l.04.19Zm3.39 2.41-.21.03c.1.04.16.03.2-.03Zm-3.95-8.67-.15-.02c.04.07.09.07.15.02Zm.19-1.44.07-.22c-.16.04-.09.14-.07.22Zm.67 10.11.05.05.1-.1-.03-.03-.12.08Zm4.26.02c0 .07-.01.14.1.1.02 0 .03-.04.05-.07l-.15-.03Zm-5.04-5.2c-.05.05-.04.1.02.13l-.02-.13Zm2.23-8.63.03.04.1-.11-.03-.03-.1.1Zm-1.85 10.51.05.03.05-.1-.03-.01-.07.08Zm-.18 1.1.05-.1-.06-.03c-.02 0-.04.04-.04.06 0 .02.03.03.06.07Zm.39-1.45.17-.04-.15-.1-.02.14Zm-.48-9.18-.16.03c.08.08.11.05.16-.03Zm-.16 8.26.02.03c.02 0 .05 0 .07-.02l.03-.08a.28.28 0 0 1-.03-.02l-.09.1Zm.03-5.81.03.04c.03-.04.14-.02.09-.15-.05.05-.08.08-.12.1Zm-.22-2.28h-.05l.04.14.04-.01-.03-.13Zm3.72 12.66.03.03.06-.08-.03-.02-.06.08Zm-3.27-5.18-.03.06.04.04.04-.05-.05-.05Zm7.6 3.66-.04-.06-.07.02.01.05.1-.01Zm-7.84-11.47.03.05.09-.08-.03-.03-.09.06Zm-.24.17-.03.03.06.04v-.03a.2.2 0 0 0-.03-.04Zm.03 5.57-.01.08.04.03c.01-.02.03-.04.03-.07l-.06-.04Zm.53 4.2v.05l.1-.01-.01-.04h-.09Zm-.08.53.04-.01c0-.05.03-.11-.08-.08 0 .03.02.06.04.09Zm-.43-8.82-.04-.06-.06.03.04.05.06-.02Zm.75 9.2.04-.02-.04-.11a.2.2 0 0 0-.04.01l.04.11Zm-.28-2.15.01.03.12-.02v-.04c-.05 0-.09.02-.13.03Zm6.91 2.48-.03.02.01.06.04-.02c0-.02 0-.04-.02-.05Zm.75.55-.03.03.1.08.02-.02-.09-.1Zm-7.79-7.3.03-.04-.1-.05-.01.04.08.05Zm.16 2.63h-.04l.01.1.03-.01v-.09Zm-.25-6.35-.03.01.01.04.06.02-.04-.07Z"
          fill="#fff"/>
    <path d="M198.26 11c.03.1 0 .21.19.23-.14.08-.25.04-.34-.1l.16-.13ZM65.99 8.62l-.02.01c-.08.05-.15.07-.22-.03-.02-.02-.08 0-.11-.01-.05-.08 0-.16.07-.16.06 0 .13.08.21.14l.07-.02v.07Zm87.46 1.99c-.1.16-.1.16.07.34-.11.01-.12 0-.3-.3.09 0 .16-.02.24-.03h-.01ZM58.99 16.9c.07.01.13.05.11.15l-.3.03c-.02-.06.02-.07.08-.08.06-.01.14 0 .12-.11h-.01Zm112.11-6.35.3-.03c-.1.1-.2.09-.31.08v-.05Zm37.63.33c.1.01.23-.05.3.13-.12-.04-.24 0-.3-.13ZM18.27 13.69c.13-.14.17-.13.2 0h-.2ZM179.2 24.08l-.23.03a.2.2 0 0 1 .23-.08v.05Zm-22.97-10.46c-.07.05-.14.1-.21-.03.09-.07.15-.03.21.03Zm48.96 10.36.02.08c-.04.12-.12-.02-.18.08.02-.15.07-.18.16-.16ZM45.9 17.64c-.06.08-.12.16-.28.08l.28-.08Zm148.85.68c.06.09.05.18-.03.26l-.05-.11.08-.15Zm-66.55 5.66.22.13-.3-.02.1-.1h-.01Zm3.02-.03c-.08-.04-.18.06-.25-.01l.01-.06.25.07ZM129.89 17h-.24a.34.34 0 0 1 .24 0Zm68.48-6.6c.13.02.1-.11.17-.18l-.02.2-.15-.01ZM11.42 23.25c.07.04.13.08.03.17-.06-.05-.06-.11-.03-.17Zm120.96.57.14.02v.04h-.15v-.06ZM57.16 11.27c.05 0 .1-.02.17-.04-.06.08-.12.09-.17.04ZM108 13.6l-.07-.14c.07.02.1.07.07.15Zm62.63 10.44.13-.04.01.03-.06.05h-.08v-.04ZM46.94 17.42c-.03.09-.1.09-.18.06.05-.08.12-.05.19-.06Zm160.26-.12c.05-.02.1-.02.16-.03-.05.08-.1.09-.16.02h-.01Zm-.2 6.8-.17.1-.03-.04.08-.04.09-.05.02.03Zm-108.87.2.09.11-.17.04.08-.15Zm-62.81-3.5.1-.12.08.1-.18.01v.01ZM27.49 9.08h-.03l-.07-.05c.06-.02.1 0 .1.05ZM206.24 24.2l-.14.06-.03-.12.17.05ZM22.7 17.16l.14-.02c.02 0 .04.03.05.05l-.06.05c0-.1-.04-.11-.13-.09Zm103.02 0 .04.07a.41.41 0 0 1-.05.01v-.08Zm44.25-6.66h-.1l-.01-.03.11-.01v.05ZM59.96 23.54l-.17.04.03-.06.13-.02.01.04Zm-1.15.28v.13l-.08-.08c.03 0 .06-.02.1-.04h-.02ZM75.8 13.03l-.12-.12.17-.01v-.01l-.05.14Zm136 10.93c.05-.06.11-.1.2-.02l-.2.02ZM121.35 9.1c-.06 0-.11 0-.2-.02.1-.06.14.02.2.03Zm53.61 1.42-.12.07-.01-.12-.01.01.14.05v-.01ZM60.56 23.33l-.14.06c.01-.07.06-.08.15-.06Zm-2.93-5.85-.13.08-.03-.03.13-.09.03.04Zm152.76-6.56c.04-.03.07-.11.18-.05l-.18.05Zm-35.15 13.19-.1-.03.01-.03.1.03a.2.2 0 0 0-.01.04ZM46.4 17.5l-.02-.11.03-.01.05.1-.06.02Zm-7.1-.86-.05-.11.04-.02.06.1-.06.03Zm164.71 7.52.09.12c-.08 0-.1-.04-.09-.12Zm-165.99.1c.08.03.08.07 0 .14v-.15Zm59.78.1-.06.08c-.02-.02-.06-.04-.05-.05.02-.08.07-.04.11-.02Zm-63.78-2.28v.11h-.04v-.1h.04Zm.28.22c-.03.06.02.15-.11.2l.1-.2Zm108.62-2.94-.04-.04.04-.05.04.04c0 .02-.03.03-.04.05ZM28.88 19.2h-.06l-.02-.03.06-.01.02.04Zm182.97-8.45h.16v.04l-.15-.04Zm-1.05-.05.03.14c-.05-.02-.06-.06-.03-.13ZM59.46 23.67l-.04.05-.02-.04.02-.03.04.02ZM137 9.17v.02l-.18.04c.05-.12.11-.09.17-.06Zm43.44 14.69-.01.08-.05-.05.03-.03h.03Zm-11.11.06-.08.06-.03-.06h.11Zm10.95.05c-.03 0-.05.02-.06.01l-.03-.06h.06l.03.05ZM15.83 23.9v.04l-.03.09-.03-.02c0-.03.02-.05.03-.07l.03-.03Zm117.82-13.19-.09.03c-.02 0-.04-.03-.06-.04 0-.02.02-.04.03-.04l.12.05ZM203.6 24.3l-.03.04-.04-.03.02-.04.04.03Zm-42.78-13.17c.1-.01.07.04.03.1l-.02-.1Zm-129.72.04H31v-.04h.1v.04Zm128.78-.11.26.06-.06.07c-.07-.02-.17-.01-.2-.13Zm1.38.14.2-.1c-.03.15-.1.14-.2.1Zm.3 3.27.1.04v.04l-.12-.05.02-.03Zm-3.83-2.19.19.06c-.11.06-.14-.02-.19-.06Zm36.95.54-.16.09-.08-.14.25.05h-.01Zm-7.04-2.24c-.09.1-.13.02-.16-.02l.16.02Zm-43.37.01-.08.05-.05-.02c.01-.02.02-.06.04-.07l.09.03Z"
          fill="#fff"/>
</svg>
