<svg width="1124" height="598" viewBox="0 0 1124 598" fill="none" xmlns="http://www.w3.org/2000/svg">
<path d="M100.5 445V246L149.5 364.5H200L249.5 246V445H350.5V5H250L173.5 195L100.5 5H0V445H100.5Z" fill="white"/>
<path d="M396 7H631V109H396V7Z" fill="white"/>
<path d="M642.022 30.0575H631V41.5V85.1609H642.022V100.793V109H684.667H695L709 94.5V21L695 7H684.667H642.022V30.0575Z" fill="white"/>
<path d="M710 185V289H496.5V445.5H396V251.548C396 242.163 397.706 233.418 401.119 225.313C404.958 217.208 409.864 210.169 415.836 204.197C421.809 198.224 428.848 193.532 436.953 190.119C445.058 186.706 453.803 185 463.188 185H710Z" fill="white"/>
<path d="M698.958 239V237H710C710.552 237 711 237.448 711 238C711 238.552 710.552 239 710 239H698.958ZM654.792 239V237H676.875V239H654.792ZM610.625 239V237H632.708V239H610.625ZM566.458 239V237H588.542V239H566.458ZM522.292 239V237H544.375V239H522.292ZM478.125 239V237H500.208V239H478.125ZM445 239C444.448 239 444 238.552 444 238C444 237.448 444.448 237 445 237H456.042V239H445Z" fill="black"/>
<path d="M1065.97 597.23C1061.58 597.23 1058.01 596.451 1055.26 594.893C1052.52 593.293 1050.4 591.037 1048.93 588.125C1047.45 585.213 1046.42 581.788 1045.85 577.851C1045.32 573.872 1045.05 569.483 1045.05 564.685V554.164H1057.42V565.177C1057.42 572.765 1057.95 578.199 1059.02 581.48C1060.12 584.721 1062.48 586.341 1066.09 586.341C1068.59 586.341 1070.42 585.767 1071.57 584.618C1072.76 583.429 1073.52 581.542 1073.84 578.958C1074.17 576.374 1074.34 572.97 1074.34 568.745C1074.34 563.905 1073.47 559.742 1071.75 556.256C1070.07 552.77 1067.63 549.427 1064.43 546.228L1057.36 539.152C1055.3 537.061 1053.29 534.784 1051.33 532.323C1049.36 529.821 1047.72 526.991 1046.4 523.833C1045.13 520.675 1044.5 517.065 1044.5 513.005C1044.5 507.55 1045.07 502.833 1046.22 498.854C1047.37 494.876 1049.46 491.8 1052.5 489.626C1055.53 487.452 1059.84 486.365 1065.42 486.365C1069.8 486.365 1073.31 487.124 1075.94 488.642C1078.6 490.159 1080.59 492.333 1081.9 495.163C1083.26 497.952 1084.14 501.274 1084.55 505.13C1085 508.985 1085.23 513.251 1085.23 517.927V524.325H1073.04V517.065C1073.04 512.677 1072.86 509.026 1072.49 506.114C1072.16 503.161 1071.46 500.946 1070.4 499.47C1069.33 497.993 1067.67 497.255 1065.42 497.255C1063.36 497.255 1061.68 497.768 1060.37 498.793C1059.1 499.777 1058.18 501.315 1057.6 503.407C1057.03 505.499 1056.74 508.186 1056.74 511.467C1056.74 514.338 1057.09 516.717 1057.79 518.604C1058.48 520.449 1059.53 522.172 1060.92 523.771C1062.36 525.371 1064.1 527.258 1066.15 529.432L1073.54 537.245C1077.43 541.306 1080.61 545.858 1083.07 550.903C1085.57 555.907 1086.83 561.731 1086.83 568.376C1086.83 574.364 1086.23 579.512 1085.04 583.818C1083.89 588.125 1081.82 591.447 1078.83 593.785C1075.83 596.082 1071.55 597.23 1065.97 597.23Z" fill="white"/>
<path d="M1001.98 596V487.719H1034.35V498.301H1014.72V535.338H1033.3V545.92H1014.72V585.418H1034.59V596H1001.98Z" fill="white"/>
<path d="M965.562 597.292C960.312 597.292 956.129 596.021 953.012 593.478C949.895 590.894 947.659 587.12 946.306 582.157C944.952 577.194 944.275 571.165 944.275 564.069V518.973C944.275 514.215 944.583 509.867 945.198 505.93C945.813 501.951 946.9 498.526 948.459 495.655C950.059 492.743 952.273 490.508 955.104 488.949C957.934 487.35 961.563 486.55 965.993 486.55C970.218 486.55 973.663 487.309 976.329 488.826C978.995 490.303 981.066 492.436 982.543 495.225C984.02 497.973 985.024 501.254 985.558 505.068C986.132 508.842 986.419 513.025 986.419 517.619V529.616H973.93V517.558C973.93 510.831 973.438 505.807 972.453 502.484C971.51 499.121 969.356 497.439 965.993 497.439C962.425 497.439 960.025 499.162 958.795 502.607C957.605 506.012 957.011 510.975 957.011 517.496V564.377C957.011 569.627 957.236 573.893 957.688 577.174C958.139 580.414 958.979 582.772 960.21 584.249C961.481 585.726 963.286 586.464 965.624 586.464C969.028 586.464 971.264 584.741 972.33 581.296C973.396 577.851 973.93 572.19 973.93 564.315V552.318H986.542V564.192C986.542 571.411 985.906 577.481 984.635 582.403C983.404 587.325 981.271 591.037 978.236 593.539C975.201 596.041 970.977 597.292 965.562 597.292Z" fill="white"/>
<path d="M914.99 596V487.719H927.726V596H914.99Z" fill="white"/>
<path d="M872.293 596L854.267 487.719H866.387L873.585 533.554L879.737 573.852H879.983L885.336 533.554L891.55 487.719H903.547L887.12 596H872.293Z" fill="white"/>
<path d="M802.771 596V487.719H825.474C831.216 487.719 835.461 488.744 838.209 490.795C840.957 492.805 842.741 495.86 843.562 499.962C844.423 504.022 844.854 509.149 844.854 515.343C844.854 522.028 844.177 527.34 842.823 531.277C841.47 535.215 838.845 537.758 834.948 538.906C836.917 539.234 838.537 540.075 839.809 541.429C841.121 542.782 842.146 544.895 842.885 547.766C843.623 550.637 844.136 554.492 844.423 559.332C844.751 564.131 844.915 570.181 844.915 577.481C844.915 578.179 844.915 579.184 844.915 580.496C844.915 581.809 844.936 583.244 844.977 584.803C845.018 586.361 845.059 587.899 845.1 589.417C845.182 590.935 845.284 592.288 845.407 593.478C845.53 594.626 845.694 595.467 845.899 596H833.226C833.062 595.631 832.918 594.811 832.795 593.539C832.672 592.268 832.569 590.586 832.487 588.494C832.405 586.402 832.344 583.921 832.303 581.05C832.262 578.138 832.241 574.897 832.241 571.329C832.241 567.72 832.241 563.782 832.241 559.517C832.241 555.415 832.057 552.298 831.688 550.165C831.359 547.991 830.539 546.494 829.227 545.674C827.955 544.812 825.904 544.3 823.074 544.136L815.507 543.705V596H802.771ZM815.507 534.354H823.628C825.966 534.354 827.75 533.902 828.98 533C830.252 532.057 831.113 530.211 831.564 527.463C832.016 524.674 832.241 520.511 832.241 514.974V514.235C832.241 509.642 832.016 506.176 831.564 503.838C831.154 501.459 830.334 499.859 829.104 499.039C827.873 498.219 826.007 497.809 823.505 497.809H815.507V534.354Z" fill="white"/>
<path d="M756.26 596V487.719H788.621V498.301H768.995V535.338H787.575V545.92H768.995V585.418H788.867V596H756.26Z" fill="white"/>
<path d="M722.791 597.23C718.402 597.23 714.834 596.451 712.086 594.893C709.338 593.293 707.226 591.037 705.749 588.125C704.272 585.213 703.247 581.788 702.673 577.851C702.14 573.872 701.873 569.483 701.873 564.685V554.164H714.239V565.177C714.239 572.765 714.772 578.199 715.839 581.48C716.946 584.721 719.305 586.341 722.914 586.341C725.416 586.341 727.241 585.767 728.39 584.618C729.579 583.429 730.338 581.542 730.666 578.958C730.994 576.374 731.158 572.97 731.158 568.745C731.158 563.905 730.297 559.742 728.574 556.256C726.893 552.77 724.452 549.427 721.253 546.228L714.178 539.152C712.127 537.061 710.117 534.784 708.148 532.323C706.18 529.821 704.539 526.991 703.227 523.833C701.955 520.675 701.319 517.065 701.319 513.005C701.319 507.55 701.894 502.833 703.042 498.854C704.19 494.876 706.282 491.8 709.317 489.626C712.353 487.452 716.659 486.365 722.237 486.365C726.626 486.365 730.133 487.124 732.758 488.642C735.424 490.159 737.413 492.333 738.726 495.163C740.079 497.952 740.961 501.274 741.371 505.13C741.822 508.985 742.048 513.251 742.048 517.927V524.325H729.866V517.065C729.866 512.677 729.682 509.026 729.312 506.114C728.984 503.161 728.287 500.946 727.221 499.47C726.154 497.993 724.493 497.255 722.237 497.255C720.187 497.255 718.505 497.768 717.192 498.793C715.921 499.777 714.998 501.315 714.424 503.407C713.85 505.499 713.562 508.186 713.562 511.467C713.562 514.338 713.911 516.717 714.608 518.604C715.306 520.449 716.352 522.172 717.746 523.771C719.182 525.371 720.925 527.258 722.976 529.432L730.358 537.245C734.255 541.306 737.434 545.858 739.895 550.903C742.396 555.907 743.647 561.731 743.647 568.376C743.647 574.364 743.053 579.512 741.863 583.818C740.715 588.125 738.644 591.447 735.649 593.785C732.655 596.082 728.369 597.23 722.791 597.23Z" fill="white"/>
<path d="M640.719 596V498.301H628.783V487.719H664.528V498.301H653.393V596H640.719Z" fill="white"/>
<path d="M589.654 596V487.719H622.016V498.301H602.39V535.338H620.97V545.92H602.39V585.418H622.262V596H589.654Z" fill="white"/>
<path d="M543.143 596V487.719H575.504V498.301H555.878V535.338H574.458V545.92H555.878V585.418H575.75V596H543.143Z" fill="white"/>
<path d="M500.322 596V487.719H513.058V585.479H533.053V596H500.322Z" fill="white"/>
<path d="M454.303 596V487.719H486.91V498.362H466.977V532.569H485.68V543.336H466.977V596H454.303Z" fill="white"/>
<path d="M361.525 596V487.719H371.123L396.225 561.424L394.933 530.108V487.719H406.191V596H396.84L372.538 521.68L373.276 548.996V596H361.525Z" fill="white"/>
<path d="M299.879 596L316.306 487.719H331.625L349.528 596H337.531L334.455 575.328H314.829L311.999 596H299.879ZM316.244 564.992H332.855L324.304 507.775H324.119L316.244 564.992Z" fill="white"/>
<path d="M275.146 596V487.719H287.882V596H275.146Z" fill="white"/>
<path d="M216.453 596V487.719H236.817C242.478 487.719 246.887 488.908 250.045 491.287C253.203 493.625 255.418 496.988 256.689 501.377C257.961 505.766 258.597 511.016 258.597 517.127L258.658 564.685C258.658 571.985 257.92 577.953 256.443 582.588C255.008 587.182 252.649 590.565 249.368 592.739C246.128 594.913 241.801 596 236.387 596H216.453ZM229.127 585.726H235.648C237.945 585.726 239.853 585.233 241.37 584.249C242.888 583.224 244.016 581.337 244.754 578.589C245.533 575.841 245.923 571.862 245.923 566.653V516.819C245.923 510.011 245.123 505.15 243.523 502.238C241.924 499.285 239.299 497.809 235.648 497.809H229.127V585.726Z" fill="white"/>
<path d="M185.938 596V487.719H198.673V596H185.938Z" fill="white"/>
<path d="M128.105 596V487.719H150.808C156.55 487.719 160.795 488.744 163.543 490.795C166.291 492.805 168.075 495.86 168.896 499.962C169.757 504.022 170.188 509.149 170.188 515.343C170.188 522.028 169.511 527.34 168.157 531.277C166.804 535.215 164.179 537.758 160.282 538.906C162.251 539.234 163.871 540.075 165.143 541.429C166.455 542.782 167.48 544.895 168.219 547.766C168.957 550.637 169.47 554.492 169.757 559.332C170.085 564.131 170.249 570.181 170.249 577.481C170.249 578.179 170.249 579.184 170.249 580.496C170.249 581.809 170.27 583.244 170.311 584.803C170.352 586.361 170.393 587.899 170.434 589.417C170.516 590.935 170.618 592.288 170.741 593.478C170.864 594.626 171.028 595.467 171.233 596H158.56C158.396 595.631 158.252 594.811 158.129 593.539C158.006 592.268 157.903 590.586 157.821 588.494C157.739 586.402 157.678 583.921 157.637 581.05C157.596 578.138 157.575 574.897 157.575 571.329C157.575 567.72 157.575 563.782 157.575 559.517C157.575 555.415 157.391 552.298 157.021 550.165C156.693 547.991 155.873 546.494 154.561 545.674C153.289 544.812 151.238 544.3 148.408 544.136L140.841 543.705V596H128.105ZM140.841 534.354H148.962C151.3 534.354 153.084 533.902 154.314 533C155.586 532.057 156.447 530.211 156.898 527.463C157.35 524.674 157.575 520.511 157.575 514.974V514.235C157.575 509.642 157.35 506.176 156.898 503.838C156.488 501.459 155.668 499.859 154.438 499.039C153.207 498.219 151.341 497.809 148.839 497.809H140.841V534.354Z" fill="white"/>
<path d="M81.5938 596V487.719H113.955V498.301H94.3291V535.338H112.909V545.92H94.3291V585.418H114.201V596H81.5938Z" fill="white"/>
<path d="M1.85938 596V487.719H16.502L33.2363 574.282L49.1709 487.719H63.875V596H52.9854V555.025L54.0312 514.543L37.7275 596H28.6221L11.6416 514.543L12.6875 555.025V596H1.85938Z" fill="white"/>
<path d="M1106.61 37.8455V8.8125H1110.53L1115.02 32.0224L1119.29 8.8125H1123.23V37.8455H1120.31V26.8591L1120.6 16.0048L1116.22 37.8455H1113.78L1109.23 16.0048L1109.51 26.8591V37.8455H1106.61Z" fill="white"/>
<path d="M1097.43 37.8455V11.6498H1094.23V8.8125H1103.82V11.6498H1100.83V37.8455H1097.43Z" fill="white"/>
<path d="M443.939 432.947L445.939 432.938L446 446L444 446.009L443.939 432.947ZM443.693 380.698L445.693 380.688L445.816 406.813L443.816 406.822L443.693 380.698ZM443.448 328.448L445.448 328.439L445.571 354.564L443.571 354.573L443.448 328.448ZM443.203 276.199L445.203 276.189L445.325 302.314L443.325 302.323L443.203 276.199ZM443.019 237.012L445.019 237.002L445.08 250.065L443.08 250.074L443.019 237.012Z" fill="black"/>
<path d="M884.943 125.734C884.943 191.066 1104 181.821 1104 297.694C1104 394.46 1044.66 445 932.564 445C808.749 445 756 385.831 756 290.914H873.954C873.954 334.058 895.933 358.712 933.297 358.712C968.463 358.712 982.383 342.071 982.383 310.021C982.383 228.047 763.326 268.109 763.326 130.048C763.326 51.1565 807.284 0 925.971 0C1046.12 0 1096.67 49.9238 1096.67 152.237H983.116C983.116 101.697 962.602 86.2881 928.901 86.2881C896.665 86.2881 884.943 102.929 884.943 125.734Z" fill="white"/>
</svg>
