<?xml version="1.0" encoding="utf-8" ?><svg xmlns="http://www.w3.org/2000/svg" xmlns:xlink="http://www.w3.org/1999/xlink" width="3000" height="3000" viewBox="0 0 3000 3000"><path fill="white" d="M1038.06 1419.99C1077.41 1415.69 1101.23 1427.74 1129.68 1453.58C1129.61 1444.23 1129.85 1435.79 1130.23 1426.43C1146.98 1425.1 1173.04 1425.78 1190.49 1425.76C1190.35 1506.29 1191.89 1590.45 1190.33 1670.5C1170.41 1670.79 1150.5 1670.87 1130.59 1670.74L1130.48 1639.93C1123.06 1647.28 1119.64 1650.45 1111.27 1656.69C1094.61 1668.66 1079.93 1675.89 1059.21 1677.69C984.727 1684.16 930.715 1638.8 924.534 1563.95C917.973 1484.52 955.653 1427.09 1038.06 1419.99ZM1062.72 1621.88C1103.15 1618.57 1133.33 1583.26 1130.3 1542.81C1127.28 1502.36 1092.19 1471.93 1051.72 1474.66C1010.84 1477.42 980.031 1512.95 983.083 1553.81C986.136 1594.67 1021.88 1625.23 1062.72 1621.88Z"/><path fill="white" d="M1518.32 1358.44C1522 1358.24 1521.82 1358.05 1525.05 1359.74C1529.14 1367.3 1527.16 1413.39 1527.1 1426.05C1548.98 1426.76 1573.1 1426.44 1595.17 1426.61C1595.4 1437.85 1599.01 1469.12 1590.61 1476.49C1584.42 1481.92 1537.58 1479.07 1526.18 1479.3C1526.06 1510.4 1525.28 1541.7 1525.65 1572.8C1526.18 1616.75 1549.22 1626.41 1587.65 1613.11C1591.83 1623.59 1605.86 1654.53 1603.21 1662.93C1592.74 1671.06 1566.9 1674.42 1553.6 1674.72C1531.29 1675.22 1507.84 1669.42 1491.53 1653.35C1462.83 1625.08 1467.03 1580.83 1467 1543.48L1466.66 1478.78C1453.86 1478.32 1441.23 1479.61 1428.41 1479.17C1416.37 1478.76 1424.57 1471.61 1419.53 1465.03C1414.53 1467.01 1393.27 1489.86 1387.91 1495.17C1329 1458.21 1264.26 1480.7 1267.25 1556.03C1269.24 1570.53 1271.97 1580.86 1281.07 1593.15C1291.94 1607.93 1308.45 1617.53 1326.67 1619.65C1352.39 1622.7 1370.3 1613.8 1389.78 1598.97C1397.33 1605.47 1424.42 1630.04 1428.29 1639.32C1428.93 1640.36 1426.97 1643.31 1426.23 1644C1379.45 1687.94 1296.44 1689.79 1248.07 1649.09C1194.25 1603.8 1188.79 1513.44 1233.98 1461.83C1281.36 1407.71 1366.81 1403.69 1420.9 1450.53L1420.82 1426.35L1465.43 1426.66C1466.27 1406.21 1465.88 1382.8 1465.94 1362.22C1483.38 1360.68 1500.84 1359.42 1518.32 1358.44Z"/><path fill="white" d="M1807.65 1420.13C1878.77 1414.96 1940.59 1468.48 1945.65 1539.61C1950.71 1610.74 1897.09 1672.47 1825.96 1677.43C1754.98 1682.37 1693.4 1628.89 1688.35 1557.92C1683.3 1486.94 1736.69 1425.29 1807.65 1420.13ZM1824.58 1620.77C1843.1 1617.71 1857.71 1609.69 1869.04 1594.38C1881.02 1577.92 1885.86 1557.33 1882.45 1537.26C1876.64 1501.16 1847.96 1473.73 1810.5 1475.71C1723.89 1491.67 1732.41 1623.23 1824.58 1620.77Z"/><path fill="white" d="M2484.28 1518.76C2492.19 1486.18 2507.26 1455.85 2536.49 1438.76C2593.71 1405.29 2683.3 1409.55 2719.74 1471.66C2737.55 1502.02 2737.58 1536.82 2736.44 1570.26C2672.89 1571.29 2606.7 1569.2 2543.76 1571.19C2546.8 1577.92 2549.78 1584.9 2553.92 1591.05C2578.31 1627.21 2626.22 1628.29 2662.74 1611.35C2670.23 1607.82 2677.32 1603.49 2683.89 1598.45C2694.77 1609.09 2713.16 1626.22 2722.49 1637.58C2665.83 1689.55 2566.18 1694.24 2512.35 1634.95C2497.26 1618.17 2487.26 1597.43 2483.53 1575.17C2480.4 1554.44 2481.66 1539.38 2484.28 1518.76ZM2546.76 1518.99L2622.32 1518.82L2677.61 1518.73C2662.09 1482.4 2641.67 1468.95 2601.69 1472.7C2573.55 1477.19 2556.5 1492.27 2546.76 1518.99Z"/><path fill="white" d="M2458.74 1637.31C2389.16 1709.88 2238.12 1683.52 2221.01 1575.88C2215.18 1539.18 2220.25 1501.33 2241.13 1469.98C2278.91 1413.25 2372.63 1402.49 2426.86 1440C2454.61 1459.38 2467.03 1485.82 2472.83 1518.61C2474.29 1533.55 2477.28 1557.72 2472.73 1571.64C2413.07 1569.48 2340.11 1569.63 2280.22 1570.53C2307.23 1633.15 2370.63 1635.27 2419.71 1599.11C2429.29 1606.24 2451.21 1627.98 2458.74 1637.31ZM2281.93 1519.79L2361.97 1519.17C2378.05 1519.12 2402.32 1519.75 2417.77 1518.59C2401.35 1485.4 2380.36 1467.64 2340.96 1472.66C2311.74 1477.42 2293.52 1492.47 2281.93 1519.79Z"/><path fill="white" d="M492.197 1323.94C512.395 1322.32 554.232 1323.86 576.975 1323.98L743.468 1324.38C743.917 1344.45 743.28 1366.84 743.146 1387.09C685.044 1389 619.036 1385.67 559.081 1386.55L559.182 1480.98C596.651 1481.06 634.12 1480.91 671.587 1480.53C682.223 1480.44 728.109 1478.27 733.463 1482.89C733.634 1502.73 733.44 1522.57 732.881 1542.4C681.268 1545.02 611.859 1542.62 558.659 1542.6C557.295 1581.98 558.92 1630.34 559.075 1670.53L492.219 1670.61C490.999 1555.93 492.138 1438.72 492.197 1323.94Z"/><defs><linearGradient id="gradient_0" gradientUnits="userSpaceOnUse" x1="125.76349" y1="1469.7549" x2="280.04639" y2="1208.0963"><stop offset="0" stop-color="#129EE3"/><stop offset="1" stop-color="#12BEE3"/></linearGradient></defs><path fill="url(#gradient_0)" d="M162.097 1255.56C215.442 1253.52 269.824 1255.42 323.28 1254.92C342.445 1254.74 362.076 1254.93 381.203 1255.64C362.681 1276.89 340.999 1298.93 321.83 1320.1L211.927 1442.96C194.409 1461.49 177.442 1480.54 161.049 1500.08C147.689 1487.3 128.848 1463.76 115.813 1448.95C96.7166 1427.24 69.2891 1400.41 52.0308 1378C58.0196 1370.83 64.9514 1363.43 71.3027 1356.55C101.909 1323.37 131.073 1288.3 162.097 1255.56Z"/><defs><linearGradient id="gradient_1" gradientUnits="userSpaceOnUse" x1="126.13951" y1="1713.2377" x2="279.15192" y2="1452.454"><stop offset="0" stop-color="#1288E3"/><stop offset="1" stop-color="#12A7E3"/></linearGradient></defs><path fill="url(#gradient_1)" d="M162.214 1499.82C179.818 1501.27 216.273 1500.12 234.98 1500.11L381.786 1500.11C365.152 1520.46 341.921 1543.21 323.798 1563.1L213.966 1685.56C197.497 1702.24 177.951 1727.92 160.223 1742.5C122.985 1703.54 89.1984 1661.95 50.9482 1622.76C88.6781 1583.89 124.278 1539.27 162.214 1499.82Z"/><path fill="white" d="M2088.3 1422.82C2156.28 1414.28 2201.04 1466.11 2203.56 1530.36C2204.3 1549.05 2204.43 1567.68 2204.62 1586.38L2205.23 1670.93C2184.44 1671.2 2163.66 1671.13 2142.87 1670.71C2141.04 1626.6 2145.17 1581.14 2141.5 1537.08C2137.69 1491.22 2101.73 1462.73 2057.34 1483.34C2029.31 1498.7 2021.37 1527.24 2021.35 1557.08C2021.33 1594.82 2021.52 1632.56 2021.58 1670.3L1961.75 1670.47C1959.91 1591.18 1960.8 1505.16 1960.74 1425.51C1979.36 1425.11 1997.99 1425.17 2016.61 1425.68L2016.77 1458.55C2040.01 1437.58 2056.8 1426.46 2088.3 1422.82Z"/><path fill="white" d="M870.125 1419.95C889.04 1418.21 930.222 1424.15 941.732 1440.67C943.072 1450.3 923.034 1482.17 916.973 1496.26C910.017 1491.29 903.181 1486.28 895.308 1483.28C863.196 1471.03 820.687 1486.98 815.723 1523.72C809.535 1569.5 812.059 1619.53 812.123 1665.68L809.648 1668.77C800.771 1671.43 762.008 1670.48 750.764 1670.4C749.74 1609.7 750.93 1548.64 750.351 1487.9C750.155 1467.37 750.136 1446.44 750.856 1425.95C767.078 1424.72 792.447 1425.39 809.377 1425.35C810.052 1433.6 811.415 1441.8 812.658 1449.99C828.858 1428.41 844.15 1422.2 870.125 1419.95Z"/><path fill="white" d="M2873.41 1419.9C2892.33 1417.53 2935.19 1424.99 2945.47 1442.12C2947.14 1450.11 2926.72 1482.65 2921.4 1494C2884.11 1468.38 2825.81 1474.65 2818.94 1522.67C2812.87 1565.13 2816.07 1621.62 2816.22 1665.18C2815.52 1667.5 2815.44 1667.01 2813.67 1669.04C2804.03 1671.02 2767.2 1670.53 2755.26 1670.59L2756.07 1426.27C2775.52 1426.05 2794.98 1426.03 2814.44 1426.21C2814.58 1435.68 2814.32 1445.85 2814.26 1455.37C2816.77 1451.93 2819.35 1448.54 2822.01 1445.2C2835.91 1427.95 2852.41 1422.09 2873.41 1419.9Z"/><path fill="white" d="M1614.45 1424.35C1634.17 1424.27 1653.9 1424.37 1673.63 1424.64C1675.19 1475.35 1672.36 1531.02 1673.75 1582.4C1674.11 1595.56 1674.51 1662.85 1672.89 1670.84L1611.69 1671.36C1611.08 1624.29 1614.3 1574.21 1613.52 1526.44C1613.27 1511.26 1612.62 1436.04 1614.45 1424.35Z"/><path fill="white" d="M1638.3 1322.16C1657.63 1319.19 1675.69 1332.5 1678.57 1351.84C1681.46 1371.18 1668.07 1389.18 1648.71 1391.97C1629.48 1394.76 1611.62 1381.47 1608.75 1362.25C1605.89 1343.03 1619.09 1325.11 1638.3 1322.16Z"/><path fill="#FEFEFE" fill-opacity="0.035294119" d="M2472.83 1518.61C2474.94 1520.4 2476.96 1522.23 2478.89 1524.2L2484.28 1518.76C2481.66 1539.38 2480.4 1554.44 2483.53 1575.17C2481.68 1573.25 2479.81 1571.35 2477.9 1569.48L2472.73 1571.64C2477.28 1557.72 2474.29 1533.55 2472.83 1518.61Z"/></svg>